<?xml version="1.0" encoding="UTF-8"?>
<svg width="606px" height="473px" viewBox="0 0 606 473" version="1.1" xmlns="http://www.w3.org/2000/svg" xmlns:xlink="http://www.w3.org/1999/xlink">
    <!-- Generator: Sketch 61.1 (89650) - https://sketch.com -->
    <title>Group 28</title>
    <desc>Created with Sketch.</desc>
    <defs>
        <polygon id="path-1" points="0.289478344 0.410116962 132.68264 0.410116962 132.68264 140.202621 0.289478344 140.202621"></polygon>
        <polygon id="path-3" points="0 0.441234885 20.6177437 0.441234885 20.6177437 58.162937 0 58.162937"></polygon>
        <polygon id="path-5" points="0.497026694 0.250186122 210.005775 0.250186122 210.005775 126.490147 0.497026694 126.490147"></polygon>
        <polygon id="path-7" points="0.57445274 0.761544643 25.87062 0.761544643 25.87062 26.6694496 0.57445274 26.6694496"></polygon>
    </defs>
    <g id="Page-1" stroke="none" stroke-width="1" fill="none" fill-rule="evenodd">
        <g id="電腦版" transform="translate(-111.000000, -5524.000000)">
            <g id="歡迎預約-1" transform="translate(0.000000, 5377.000000)">
                <g id="Group-28" transform="translate(111.000000, 147.000000)">
                    <g id="Group-95">
                        <path d="M161,144 C161,110.862508 134.13688,84 101.000394,84 C67.8623318,84 41,110.862508 41,144 C41,177.137492 67.8623318,204 101.000394,204 C134.13688,204 161,177.137492 161,144" id="Fill-1" fill="#FEFEFE"></path>
                        <path d="M149.191088,106.393786 L517.745622,80.1383222 C552.449374,77.666643 581,108.689143 581,143.588367 C581,178.48522 552.533717,206.718976 517.745622,207.036831 L105.397959,210.967323 C98.0506262,212.010235 195.453823,188.322124 149.191088,106.393786" id="Fill-3" fill="#D70110"></path>
                        <g id="Group-7" transform="translate(33.000000, 71.000000)">
                            <mask id="mask-2" fill="white">
                                <use xlink:href="#path-1"></use>
                            </mask>
                            <g id="Clip-6"></g>
                            <path d="M59.3380772,16.7090018 C90.8691541,12.7549728 119.629919,35.1527353 123.578184,66.7361324 C127.525663,98.3179542 105.16579,127.128017 73.6347132,131.082046 C42.1036362,135.036863 13.3428716,112.639101 9.39460645,81.0557034 C5.44634126,49.473094 27.8077866,20.6638184 59.3380772,16.7090018 M60.4130181,25.3094086 C87.2024024,21.9492716 111.63824,40.9782329 114.992811,67.812857 C118.347381,94.6459058 99.3491564,119.123078 72.5597722,122.483215 C45.7711743,125.843352 21.333764,106.813603 17.9791934,79.9797665 C14.6261954,53.14593 33.6236339,28.6695456 60.4130181,25.3094086 M64.2826483,2.27128246 L64.2826483,2.27128246 C64.39431,3.16212046 63.606387,3.9993979 62.531446,4.13408694 L60.5820835,4.3790477 L61.0122171,7.8281897 C96.1927461,4.87842108 127.736405,30.2464312 132.162771,65.6586201 C136.704731,101.991578 110.981637,135.132957 74.7096541,139.682453 C38.4376708,144.230374 5.35119287,118.465386 0.809233161,82.1332157 C-3.61556034,46.7352046 20.6897431,14.3712412 55.4865331,8.5221139 L55.0556131,5.07218425 L53.0394108,5.32502156 C51.9644698,5.45971059 50.9941135,4.84218894 50.8832381,3.95292625 L50.8832381,3.95213859 C50.7715763,3.0628759 51.5091729,1.83885977 52.5738913,1.60177556 L62.0659266,0.410116962 C63.1558082,0.379334731 64.1717729,1.38201977 64.2826483,2.27128246 M60.0906145,22.7298379 C88.3025065,19.1909032 114.035822,39.2312138 117.568108,67.4891307 C121.100394,95.748623 101.094068,121.523851 72.8829622,125.061998 C44.6702838,128.60172 18.9369681,108.56141 15.4046823,80.3019174 C11.8716101,52.0432128 31.8795088,26.2671973 60.0906145,22.7298379" id="Fill-5" fill="#D70110" mask="url(#mask-2)"></path>
                        </g>
                        <path d="M94.0090995,98.0100561 L94.0098073,98.0100561 C94.6383792,97.9208686 95.2166936,98.4349128 95.295973,99.1557098 L95.9910828,105.517209 C96.0696543,106.236385 95.6201688,106.899615 94.9908891,106.989614 C94.3623172,107.080423 93.783295,106.565568 93.7047235,105.844771 L93.0089057,99.483271 C92.9303343,98.7632848 93.3805276,98.1000543 94.0090995,98.0100561" id="Fill-8" fill="#D70110"></path>
                        <path d="M105.009437,183.010214 L105.009437,183.010214 C105.638126,182.920217 106.216548,183.435064 106.295842,184.155849 L106.991081,190.516436 C107.069667,191.236411 106.620098,191.899631 105.990701,191.989627 C105.362013,192.080435 104.782883,191.564777 104.704297,190.843992 L104.009057,184.483405 C103.929763,183.763431 104.38004,183.100211 105.009437,183.010214" id="Fill-10" fill="#D70110"></path>
                        <path d="M105.991227,192.989206 L105.990527,192.990007 C105.361904,193.078901 104.782928,192.564759 104.704612,191.844 L104.008861,185.4837 C103.930545,184.763742 104.380161,184.100644 105.008785,184.010148 C105.638107,183.920454 106.216384,184.435396 106.295399,185.156155 L106.99115,191.516455 C107.069466,192.237214 106.619151,192.900313 105.991227,192.989206" id="Fill-12" fill="#D70110"></path>
                        <path d="M94.9912193,105.989851 L94.99052,105.989851 C94.3618992,106.079552 93.7822255,105.564573 93.7046094,104.843763 L93.0088611,98.4838179 C92.9305457,97.7638089 93.3801599,97.099863 94.0087807,97.0101622 C94.6381008,96.9204614 95.216376,97.4346391 95.2953906,98.155449 L95.9911389,104.516996 C96.0694543,105.237806 95.6198401,105.899349 94.9912193,105.989851" id="Fill-14" fill="#D70110"></path>
                        <path d="M128.48338,182.732585 L128.48338,182.733388 C127.909814,183.172487 127.085562,183.056892 126.65162,182.477314 L123,177.598256 C123.712395,177.087713 124.407337,176.553891 125.084033,176 L128.735653,180.879057 C129.170389,181.459439 129.056945,182.293486 128.48338,182.732585" id="Fill-16" fill="#D70110"></path>
                        <path d="M73.9077359,113 L70.2650259,108.132859 C69.8285391,107.548996 69.943446,106.710752 70.5195767,106.268211 C71.0973033,105.826478 71.925591,105.942766 72.3620778,106.525822 L76,111.388925 C75.2850234,111.904146 74.5868041,112.441979 73.9077359,113" id="Fill-18" fill="#D70110"></path>
                        <path d="M143.902501,163.176098 L143.902501,163.176098 C143.637107,163.859162 142.905012,164.182288 142.274702,163.895155 L137,161.481117 L137.015833,161.443487 L137.03242,161.404222 L137.048253,161.366592 L137.064841,161.328144 C137.143252,161.144085 137.220156,160.957571 137.296306,160.771058 L137.299322,160.761242 L137.303092,160.752243 L137.318925,160.713795 L137.319679,160.711341 L137.457654,160.36531 L137.472733,160.32768 L137.475749,160.321136 L137.47801,160.313773 L137.481026,160.307229 L137.484042,160.300685 L137.487058,160.29414 L137.48932,160.287596 C137.537573,160.16489 137.585073,160.044638 137.631064,159.921932 L137.633326,159.915388 L137.635588,159.908025 L137.63785,159.901481 L137.640866,159.894936 L137.644636,159.886756 L137.647651,159.87694 L137.650667,159.867941 L137.654437,159.858125 C137.723047,159.678156 137.791658,159.496551 137.858006,159.314128 L137.872331,159.274862 L137.971854,159 L143.241278,161.410766 C143.870835,161.698716 144.168649,162.492216 143.902501,163.176098" id="Fill-20" fill="#D70110"></path>
                        <path d="M62.0355219,130 L56.7591705,127.588351 C56.1295073,127.29977 55.8316427,126.506787 56.0970815,125.824168 L56.0978356,125.824168 C56.3625204,125.140731 57.0954936,124.816997 57.7251568,125.105578 L63,127.517227 L62.9841642,127.554833 L62.9796396,127.564643 L62.9668201,127.595708 L62.9622956,127.605518 C62.8846246,127.79191 62.8077076,127.978302 62.7307907,128.166329 L62.7270203,128.176957 L62.7232498,128.186767 L62.7187253,128.197394 L62.7149549,128.208022 L62.699119,128.245627 L62.6372838,128.400136 L62.6222021,128.438559 L62.6063662,128.4778 L62.5912845,128.516222 C62.5226625,128.691169 62.4532864,128.866116 62.3869267,129.042698 L62.3839104,129.05169 L62.380894,129.059865 L62.3658123,129.098288 L62.3507305,129.137529 L62.234601,129.450634 L62.2202734,129.489057 L62.217257,129.497232 L62.2134866,129.505407 L62.2112243,129.512765 C62.1508973,129.675449 62.0928325,129.837316 62.0355219,130" id="Fill-22" fill="#D70110"></path>
                        <path d="M146.989695,139.008872 L146.989695,139.009571 C147.080193,139.637464 146.564431,140.217111 145.844446,140.295423 L139.483111,140.99114 C138.763126,141.069451 138.100003,140.619858 138.010305,139.990566 L138.010305,139.989867 C137.919807,139.361275 138.435569,138.783725 139.155554,138.704015 L145.516088,138.008997 C146.236874,137.929986 146.899196,138.380279 146.989695,139.008872" id="Fill-24" fill="#D70110"></path>
                        <path d="M60.9896945,150.009423 L60.9896945,150.009423 C61.0801932,150.638015 60.5644309,151.216963 59.844446,151.295974 L53.4831111,151.990991 C52.7631262,152.070002 52.1000033,151.620409 52.0103055,150.991117 L52.0103055,150.990418 C51.9198068,150.361826 52.4355691,149.783577 53.155554,149.704566 L59.516088,149.008849 C60.2368738,148.930537 60.8999967,149.38083 60.9896945,150.009423" id="Fill-26" fill="#D70110"></path>
                        <path d="M137.730813,115.520083 L137.730813,115.520083 C138.173757,116.098936 138.05796,116.928839 137.472496,117.366177 L132.613063,121 C132.097239,120.28203 131.559551,119.58165 131,118.900458 L135.861052,115.265835 C136.447326,114.828497 137.287868,114.942829 137.730813,115.520083" id="Fill-28" fill="#D70110"></path>
                        <path d="M68,170.077078 L63.1135203,173.736315 C62.5355324,174.17026 61.7045747,174.056231 61.2658802,173.485291 C60.8279863,172.911977 60.9432637,172.090014 61.5212516,171.656861 L66.4029281,168 C66.9136709,168.709517 67.4468287,169.402404 68,170.077078" id="Fill-30" fill="#D70110"></path>
                        <path d="M118.172581,101.097629 L118.172581,101.097629 C118.858563,101.365646 119.183892,102.102881 118.893889,102.736857 L116.493361,108 C115.675112,107.651503 114.842896,107.325024 114,107.02436 L116.398885,101.765013 C116.688065,101.131037 117.486598,100.830372 118.172581,101.097629" id="Fill-32" fill="#D70110"></path>
                        <path d="M85,182.962102 L82.5768394,188.246551 C82.290229,188.87173 81.500422,189.166725 80.8197223,188.903925 C80.1398368,188.639628 79.8182144,187.912623 80.1048248,187.286695 L82.5296138,182 C83.3397767,182.34441 84.1645958,182.66561 85,182.962102" id="Fill-34" fill="#D70110"></path>
                        <path d="M26,71.1088603 C20.7760628,75.1411444 16.8705097,80.9018886 15.2793289,87.7786338 C13.6385486,94.8645307 14.7337354,101.936221 17.8776976,107.921902 L15.0081321,110 C11.2977767,103.210862 9.96899268,95.1163018 11.8465701,87.005957 C13.6753481,79.1039744 18.2384933,72.5200413 24.3248201,68 L26,71.1088603 Z" id="Fill-36" fill="#D70110"></path>
                        <g id="Group-40" transform="translate(0.000000, 58.000000)">
                            <mask id="mask-4" fill="white">
                                <use xlink:href="#path-3"></use>
                            </mask>
                            <g id="Clip-39"></g>
                            <path d="M20.6177437,4.52140407 C13.2330841,9.86604964 7.67468005,17.8642154 5.49585368,27.5350311 C3.26986323,37.4111088 4.96545095,47.2683839 9.5434605,55.4342064 L5.8778055,58.162937 C0.561407318,48.9473014 -1.44345314,37.742505 1.08717095,26.5142054 C3.57140414,15.493518 9.97953505,6.413418 18.4783496,0.441234885 L20.6177437,4.52140407 Z" id="Fill-38" fill="#D70110" mask="url(#mask-4)"></path>
                        </g>
                        <path d="M152,54.3824073 C157.96262,56.9892407 163.09533,61.5693401 166.298656,67.7747115 C169.601006,74.1689048 170.292598,81.2083693 168.769524,87.6977537 L172.012146,89 C173.877871,81.6023983 173.15563,73.5275348 169.377025,66.2079586 C165.695871,59.0787647 159.734823,53.868219 152.831482,51 L152,54.3824073 Z" id="Fill-41" fill="#D70110"></path>
                        <path d="M154,44.5060028 C162.743876,47.8550271 170.32542,54.2416116 174.941177,63.1041775 C179.657658,72.1555094 180.437876,82.1719077 177.904566,91.2649254 L182.264513,93 C185.273468,82.6996661 184.462873,71.2958374 179.102072,61.0057283 C173.841197,50.9051718 165.134893,43.6785783 155.116767,40 L154,44.5060028 Z" id="Fill-43" fill="#D70110"></path>
                        <path d="M89.3033882,55.6901676 C89.6577078,55.6452641 90.0104493,55.6042994 90.364769,55.5641226 L90.582569,55.5397013 C90.932154,55.5011001 91.2801606,55.4640743 91.6297455,55.4301997 L91.7607412,55.4168074 C92.0953326,55.3845084 92.4291349,55.3537849 92.7629372,55.3254248 L92.8923547,55.3136081 C93.23247,55.2852479 93.5717962,55.2592511 93.9119115,55.2348299 L94.1652225,55.2167109 C94.5069161,55.1930775 94.8486097,55.1702318 95.1903033,55.1497495 L95.2865772,55.1450228 C95.5951274,55.1269039 95.9044666,55.111936 96.2130167,55.0969682 L96.4963146,55.0835759 C96.8214365,55.0701836 97.1457692,55.0567913 97.4685237,55.0473379 L97.7084194,55.0402479 C98.0098673,55.0307945 98.3121044,55.0221289 98.6127632,55.0174022 L98.7721676,55.0134633 C99.0901873,55.0079488 99.408207,55.0047977 99.7262267,55.0016466 L100.048981,55.0008588 C100.360688,54.9992833 100.672394,55 100.983312,55.0016466 L101.245303,55.0047977 C101.513608,55.0071611 101.781912,55.0111 102.048638,55.0166144 L102.316154,55.0205534 C102.619969,55.0276434 102.922995,55.036309 103.225232,55.0465501 L103.584287,55.0591546 C103.863639,55.0693958 104.141413,55.0812125 104.419976,55.0930292 L104.734839,55.1087849 C104.985783,55.1213894 105.235937,55.1347817 105.486092,55.1489617 L105.842779,55.1710196 C106.137914,55.1891386 106.434627,55.2096209 106.728973,55.2301032 L107.062775,55.2561 C107.294779,55.2734312 107.526784,55.292338 107.759577,55.3120325 L108.152564,55.3459071 C108.414556,55.3695405 108.675758,55.393174 108.93775,55.4191708 L109.331526,55.4585599 C109.579313,55.4845566 109.825522,55.5097657 110.072519,55.5381258 C110.250863,55.5570325 110.429207,55.5783026 110.60755,55.5995727 L111.105492,55.6586564 L111.561609,55.7161644 C111.818077,55.7492512 112.073755,55.7831258 112.330222,55.818576 L112.841579,55.8910519 L113.270077,55.9540744 C113.551797,55.9958268 113.832727,56.038367 114.113658,56.0832706 L114.479815,56.1423542 C114.658947,56.1707143 114.839658,56.1998622 115.018791,56.2313735 L115.431506,56.3022738 C115.722695,56.3534796 116.013096,56.4054732 116.303496,56.4598301 L116.612835,56.5165504 C116.933222,56.5772096 117.252031,56.6386565 117.57084,56.7032546 L117.865974,56.7615504 L118.457822,56.8844443 L118.66931,56.9301357 C119.043357,57.0097016 119.415827,57.0916309 119.788297,57.1767113 L119.91219,57.2042836 C120.571115,57.3547499 121.227671,57.5123062 121.881072,57.6785281 L121.931576,57.6911326 C122.368754,57.8022098 122.805144,57.9164381 123.239165,58.0338175 L123.247846,58.0361809 C123.904403,58.2134317 124.557803,58.3985603 125.208836,58.5915668 L125.290116,58.6152002 C128.160185,59.4660042 130.975014,60.4601845 133.725134,61.5898631 C139.095169,60.0465992 145.051528,60.5184803 150.36001,63.3749759 C161.12612,69.1698965 165.146741,82.5803006 159.343474,93.3280034 C158.78398,94.3623605 158.155043,95.3329072 157.463765,96.2404315 L118.951029,75.5115374 C119.330601,74.4370035 119.796977,73.3774374 120.355682,72.3430803 C121.890541,69.5007647 123.960431,67.1295425 126.371225,65.2861338 C126.166051,65.2120824 125.960877,65.1388187 125.754914,65.0671306 L125.391914,64.9410855 L124.927116,64.7827414 L124.396031,64.6047028 L124.006201,64.4770822 L123.500368,64.3147993 L123.001637,64.1580307 L122.632324,64.0438024 C122.405843,63.9744777 122.179363,63.9059407 121.952093,63.8389792 L121.689313,63.7617767 L121.144023,63.6042204 L120.76603,63.4962943 C120.564012,63.439574 120.361206,63.3844293 120.158399,63.3284968 L119.841169,63.2434164 C119.612321,63.1819695 119.384262,63.1213103 119.155414,63.0622267 L118.808197,62.9739952 L118.329194,62.8542524 L117.880179,62.7431752 L117.331733,62.6131913 L116.961631,62.5273231 C116.743831,62.4769051 116.52603,62.4280626 116.307441,62.3792202 L115.930237,62.2980787 L115.444921,62.1948793 L114.979334,62.0979822 L114.45693,61.9932072 L114.090773,61.9215191 C113.867449,61.8781911 113.644125,61.8364387 113.42159,61.7954741 L113.048331,61.7277249 L112.52277,61.6355544 L112.039822,61.5536252 L111.547405,61.4740592 L111.172568,61.4141878 C110.947665,61.3795255 110.722763,61.3448631 110.497072,61.3117762 L110.130915,61.2589949 L109.642443,61.1904579 C109.442004,61.1636733 109.240776,61.1368888 109.039547,61.1116798 L108.612628,61.0573228 L108.246471,61.0132071 C108.019201,60.9856347 107.791143,60.9596379 107.563873,60.9344289 L107.146423,60.8903132 L106.700564,60.8446218 C106.493812,60.8241395 106.287059,60.8036572 106.081096,60.7847504 L105.662068,60.7469369 L105.071798,60.6973067 L104.620415,60.6626443 L104.149304,60.6303453 L103.65373,60.5972584 L103.103706,60.5641716 L102.650745,60.5405382 L102.081782,60.5137536 L101.616195,60.4948469 L101.155342,60.4790912 L101.123777,60.4775157 L100.524827,60.4601845 L100.501153,60.4601845 L100.092383,60.4515189 L99.6212723,60.4436411 L99.0767721,60.4373388 L98.5827762,60.4357632 L98.1479652,60.4357632 C97.923063,60.436551 97.6989498,60.4381266 97.4740476,60.4412777 L97.0905301,60.4467922 C96.8995604,60.4499433 96.7093799,60.45467 96.5184103,60.4593967 L96.0504558,60.4712134 L95.5106904,60.4893324 L95.1192815,60.5027247 C94.8904336,60.512178 94.6615857,60.5224192 94.4327378,60.5334481 L94.0168659,60.555506 L93.5070875,60.5846539 L92.9436481,60.6201041 L92.4512306,60.6539787 L92.073237,60.6823388 C91.8325521,60.69967 91.5918672,60.7201524 91.3503932,60.7406347 L90.9731887,60.7737215 C90.7482865,60.7942038 90.521806,60.8154739 90.2953255,60.8383196 L89.8857666,60.880072 L89.3704643,60.9336411 L89.0090424,60.973818 L88.6910227,61.0187215 C88.4921618,61.0462939 88.29409,61.0754418 88.0960182,61.1045897 L87.8103528,61.1463421 C87.5594093,61.1841557 87.3084657,61.2227569 87.0583113,61.2629338 L86.6976785,61.3212296 C86.4506806,61.362982 86.205261,61.4047345 85.9590522,61.4472747 L85.6386651,61.5039949 C85.4461172,61.5378695 85.2535693,61.5733197 85.0618106,61.6087699 L84.6546191,61.6843969 C84.4541799,61.7229982 84.2545298,61.7615995 84.0540906,61.8009885 L83.6587361,61.8797667 C83.4267317,61.9270336 83.1963055,61.9750883 82.9658794,62.0231429 L82.6170836,62.0987699 C82.4198009,62.1405224 82.2225182,62.1846381 82.0252356,62.2287539 L81.6551333,62.3122587 C81.4531158,62.3587378 81.2518875,62.4044292 81.0506591,62.4532716 L80.7050199,62.5344131 C80.4682807,62.5927089 80.2315414,62.6494292 79.9963805,62.7093006 L79.6199651,62.8038344 L79.1101867,62.9353939 L78.6367083,63.0614389 C78.4654669,63.107918 78.2942255,63.1536093 78.1237733,63.2008762 L77.7647188,63.3001367 C77.5445513,63.3615837 77.3243839,63.4238184 77.1050055,63.4876287 L76.7057054,63.6050081 L76.2338052,63.7452332 C76.045203,63.8011657 75.8566007,63.8594616 75.6687876,63.9169696 L75.2686984,64.0422269 C75.0943005,64.0965838 74.9206917,64.1509407 74.747083,64.207661 L74.2262567,64.3762462 L73.8443174,64.5038668 C73.6762326,64.5597993 73.5089369,64.6157318 73.3416412,64.672452 L72.8184475,64.8536418 L72.4270387,64.9922913 C72.2337016,65.0608283 72.0403646,65.1285775 71.8470276,65.1994779 L71.4201079,65.3554586 L71.0208077,65.5043493 C70.8077424,65.584703 70.5954663,65.6642689 70.3831901,65.7461982 L70.0422856,65.8785455 L69.6374616,66.0376773 L69.0645527,66.2669218 L68.625796,66.4449604 L68.2714763,66.5914877 C68.0647241,66.6773559 67.8595501,66.7647997 67.6543761,66.8514556 L67.2882194,67.0090119 L66.862878,67.1941406 L66.3602017,67.4170827 L65.9206559,67.6148159 L65.5466079,67.7857645 L65.5142536,67.7991567 C65.3366992,67.881086 65.1599339,67.9630153 64.9831686,68.0465201 L64.9571273,68.0583368 L64.5791337,68.237951 L64.188514,68.4246552 L63.6329659,68.6948643 L63.2960071,68.8610862 L62.8580396,69.0800894 C62.6773287,69.1714721 62.4966177,69.2628547 62.3166959,69.3558129 L61.9418588,69.5496072 L61.5425587,69.7591571 L61.0461955,70.0222761 L60.6524192,70.2349771 L60.3020452,70.426408 C60.1094973,70.5319707 59.9185277,70.6375334 59.727558,70.7446717 L59.3787623,70.9408293 L58.876086,71.2275817 L58.4870445,71.453675 L58.1122075,71.6726783 L57.6410964,71.9531285 L57.2086528,72.2130964 L56.8559114,72.4281607 L56.4305699,72.6912797 L55.9634045,72.9835467 L55.6232892,73.2001866 L55.1253477,73.5208136 L54.7560345,73.7602992 L54.4040822,73.9934825 L53.8737864,74.3479842 L53.9329712,74.373981 C54.0339799,74.4165212 54.1341995,74.4606369 54.2352082,74.5063283 L54.402504,74.5811675 C54.5169279,74.6339489 54.6313519,74.6883058 54.7457758,74.7434505 L54.8964998,74.8159264 C55.006189,74.8702833 55.1158781,74.9246402 55.2247782,74.9797849 L55.3707673,75.0546242 C55.4915043,75.1176467 55.6122413,75.181457 55.7321892,75.2476306 L55.8300414,75.3011998 C55.9618263,75.3728879 56.092822,75.4453638 56.2222394,75.5209908 L56.2869481,75.5588043 C56.4226786,75.6367947 56.5568308,75.7171484 56.690983,75.7990777 L56.7596374,75.8416179 C56.8969462,75.9259105 57.0326766,76.0109909 57.167618,76.0984346 L57.215755,76.1299459 C57.3483289,76.2158141 57.4793246,76.3032578 57.6103203,76.3922771 L57.680553,76.4403318 C57.8099704,76.5285633 57.9393878,76.6191582 58.067227,76.7113286 L58.1129966,76.7444154 C58.2471488,76.8413126 58.3805119,76.940573 58.5130859,77.0406213 L58.5612228,77.077647 C58.6969533,77.1800586 58.8311055,77.2856213 58.9644686,77.3919718 L58.9881426,77.4100908 C59.1246622,77.5203802 59.2596035,77.6306696 59.3937557,77.7433224 L59.3961231,77.7456857 L59.407171,77.7543513 L59.4221644,77.7669558 C59.6991493,78.0009269 59.9721886,78.2427758 60.2397039,78.4925025 L60.2515408,78.5027437 C60.3849039,78.6272132 60.5166887,78.7532582 60.6476844,78.8808788 L60.6626779,78.8966344 C60.9294041,79.1581779 61.1906064,79.4283869 61.4470739,79.7064738 C62.2440959,80.5714579 62.9582592,81.482921 63.591142,82.4314099 L31.3867175,112 C30.4934215,111.290209 29.6427386,110.504791 28.8457166,109.639019 C20.5661571,100.65122 21.1524812,86.6657354 30.1540953,78.4003321 C30.2937714,78.2727115 30.4334476,78.148242 30.574702,78.0253481 L30.5802259,78.0190459 L30.581015,78.0190459 C30.719902,77.8977275 30.8595782,77.7787725 31.0016217,77.6613931 L31.0134587,77.6511519 L31.0339761,77.6338207 C31.16655,77.5243191 31.2999131,77.4171808 31.4340653,77.3108303 L31.4530045,77.2958625 L31.4774675,77.2769557 C31.6139871,77.1706052 31.7505067,77.0650425 31.8886046,76.9618431 L31.920959,76.9374219 C32.0606351,76.832647 32.2018895,76.7310232 32.343933,76.6301871 L32.3691852,76.6128559 C32.5096505,76.5143832 32.6509049,76.4159106 32.7937376,76.3198012 L32.8418745,76.2875022 C32.9783941,76.1961195 33.1172811,76.1055247 33.255379,76.0172931 L33.309829,75.9834185 C33.4439813,75.8975503 33.5797117,75.8148333 33.7146531,75.7321162 L33.8006683,75.682486 C33.9277184,75.6052834 34.0563467,75.5304442 34.184975,75.4571805 L34.2741468,75.4059747 C34.401986,75.3350744 34.5282469,75.2649618 34.656086,75.1964248 L34.77051,75.1365534 C34.8920361,75.0711676 35.0159296,75.0073573 35.1382449,74.9451225 L35.2542471,74.8868267 C35.3789298,74.824592 35.5044016,74.763145 35.6298733,74.7040614 L35.7458756,74.6489167 C35.8658234,74.5929842 35.9849822,74.5386273 36.10493,74.4842704 L36.2595997,74.4165212 C36.3708671,74.3676787 36.4829237,74.319624 36.5957693,74.2731449 L36.7614868,74.2046079 C36.8727542,74.1597044 36.9824434,74.1155886 37.0921326,74.0722607 L37.2649522,74.006087 C37.3730631,73.9651224 37.4819631,73.9241577 37.5916523,73.8855564 L37.7747306,73.8209584 C37.8812633,73.7823571 37.9885851,73.7453313 38.0959068,73.7090934 L38.2829308,73.6476464 C38.3894635,73.6137718 38.4967852,73.5798972 38.6025288,73.5468104 L38.8006006,73.486939 C38.9008202,73.4577911 39.0010398,73.4286432 39.1012594,73.3994953 L39.3151138,73.3404117 C39.412966,73.3136271 39.5123965,73.2876303 39.6110378,73.2632091 L39.8383075,73.2049132 C39.9369488,73.1812798 40.0355901,73.1576464 40.1342315,73.1355885 L40.3591337,73.0835949 L40.6171795,73.0300258 L40.6345403,73.0260869 L40.8752252,72.9772444 L41.1340601,72.9284019 L41.1435297,72.9268264 L41.392895,72.8827106 L41.652519,72.8401704 L41.6730364,72.8370193 C41.8087669,72.8149614 41.9452865,72.7952669 42.0818061,72.7763601 L42.1907061,72.7613923 C42.3493214,72.7401222 42.5087258,72.7212154 42.6673411,72.7030964 L42.7012737,72.6999453 C42.8646238,72.6810386 43.0271847,72.6660707 43.1905347,72.6503151 L43.2252565,72.6479517 C43.3878174,72.6337717 43.5503783,72.6211672 43.7129393,72.610926 L43.7492393,72.6085627 C43.9086437,72.5991093 44.0680481,72.5904437 44.2266634,72.5841414 L44.2803243,72.5817781 C44.7987831,72.5620836 45.317242,72.5597202 45.8357009,72.5770514 C47.3074297,71.4828229 48.8162476,70.4327102 50.3605764,69.4298644 L50.3834612,69.4148966 C50.7543527,69.1738354 51.1291897,68.9343498 51.504816,68.6988032 L51.5458508,68.6720186 C52.1053444,68.3214559 52.6687838,67.9779831 53.2361688,67.6392371 L53.3829471,67.5517934 C53.9455973,67.2185618 54.5129823,66.8900569 55.0843129,66.5678543 L55.1853216,66.511134 C55.5388522,66.3126131 55.8947501,66.1156677 56.2522264,65.9210857 L56.3745416,65.854912 C56.9490288,65.5437384 57.5274616,65.2388669 58.1106292,64.9402977 L58.2913401,64.8481273 C58.6006794,64.6889955 58.9131751,64.5330147 59.2256709,64.3778218 L59.4916079,64.2462623 C59.6604819,64.1635452 59.8309342,64.0808282 60.0005973,63.9988989 L60.3343996,63.839767 C60.5995475,63.7129342 60.8654845,63.5861014 61.1329998,63.4624197 L61.4817956,63.3009245 L61.9615871,63.0811335 C62.1754415,62.9858119 62.3885068,62.8897026 62.6023612,62.7951688 L62.6213004,62.7865032 L63.1358136,62.5611977 L63.5169637,62.3965513 C63.7544921,62.2949275 63.9920204,62.1940915 64.2303379,62.0932555 L64.6793533,61.907339 L65.1291578,61.7229982 C65.3564274,61.6308277 65.5836971,61.5386573 65.812545,61.4488502 L66.2868125,61.262146 L66.7839649,61.0707151 C66.9315323,61.0139949 67.0798889,60.9572746 67.2282455,60.9005543 C67.4744543,60.8083839 67.7206631,60.7170012 67.9684501,60.6271941 L68.3259263,60.497998 C68.5934416,60.4003131 68.8617461,60.3042037 69.1316288,60.2104577 L69.4196615,60.1104095 C69.6469311,60.0316313 69.8765682,59.953641 70.1062052,59.8748628 L70.4455314,59.7614223 C70.7217272,59.6700396 70.9987121,59.5794448 71.2764861,59.4904255 L71.6039753,59.3856505 C71.8501841,59.3076602 72.0963929,59.2312454 72.3441799,59.1540428 L72.6124844,59.0721135 C72.8863127,58.9886087 73.1625085,58.9066794 73.4387042,58.8255379 L73.7717174,58.7286408 C74.065274,58.6443482 74.3596198,58.5600555 74.6539655,58.4781263 L74.9277939,58.403287 C75.1724244,58.3363256 75.4170549,58.270152 75.6624746,58.2055539 L75.9402486,58.1322902 C76.2416965,58.0527243 76.5447227,57.9747339 76.8477489,57.9006824 L77.1531425,57.8242676 C77.4632709,57.7470651 77.7733993,57.6730136 78.0851059,57.5997499 L78.2381972,57.563512 C78.5333321,57.494975 78.828467,57.4280136 79.1251802,57.3626277 L79.3556063,57.3114219 C79.6720478,57.2420971 79.9892783,57.1735601 80.307298,57.1081743 L80.5858611,57.0506662 C80.8880982,56.9876437 81.1911244,56.9277723 81.4949397,56.8686887 L81.5896354,56.8505697 C81.925016,56.7859716 82.2627639,56.7237369 82.6005118,56.66229 L82.8498772,56.6173864 C83.1844686,56.5583028 83.5206383,56.5 83.8575971,56.4432867 L83.9822797,56.4235922 C84.3145038,56.3692352 84.6475169,56.3164539 84.979741,56.2652481 L85.1091584,56.2455536 C85.4563759,56.1927722 85.8028043,56.1423542 86.1516001,56.0935117 L86.3678219,56.063576 C86.7213524,56.0155214 87.0740939,55.9682545 87.4284136,55.9241387 L87.4434071,55.9225631 L87.4584005,55.9201998 C87.7724746,55.8808107 88.0857595,55.843785 88.3990444,55.8083348 C88.6902336,55.7697335 88.982212,55.7303445 89.2741903,55.6933187 L89.2883947,55.6909554 L89.3033882,55.6901676 Z" id="Fill-45" fill="#D70110"></path>
                        <path d="M99.130275,137.055017 C102.966863,136.574471 106.465202,139.295232 106.94497,143.130268 C107.425515,146.966859 104.705535,150.465202 100.869725,150.94497 C97.033915,151.425516 93.5347978,148.705533 93.05503,144.869719 C92.5744845,141.033906 95.294465,137.534786 99.130275,137.055017" id="Fill-47" fill="#D70110"></path>
                        <path d="M95.3182397,109.011952 L95.3189976,109.011952 C96.13983,108.906322 96.8962388,109.512715 96.9985587,110.360883 L100.988274,143.253206 C101.091352,144.101374 100.503202,144.882252 99.6823699,144.987882 L99.681612,144.987882 C98.8600216,145.094294 98.1043707,144.487901 98.001293,143.640515 L94.0115776,110.74741 C93.9092577,109.899242 94.4966494,109.119147 95.3182397,109.011952" id="Fill-49" fill="#D70110"></path>
                        <path d="M86.0844668,100.019715 L86.0844668,100.019715 C86.9203081,99.9127701 87.7453545,100.238358 87.9982659,101.059062 L100.92759,143.013196 C101.182044,143.8339 100.74716,144.873247 99.9167157,144.980192 C99.0847298,145.087137 98.255057,144.763925 98.0021456,143.940053 L85.0728212,101.985919 C84.8183676,101.162839 85.2486255,100.127452 86.0844668,100.019715" id="Fill-51" fill="#D70110"></path>
                        <path d="M245.944266,53.222776 L246.613409,50.4970018 L235.567781,51.2690555 L234.897844,53.9940435 L245.944266,53.222776 Z M243.847245,61.7641117 L244.516389,59.0383375 L233.47076,59.8103912 L232.800824,62.5361654 L243.847245,61.7641117 Z M241.735161,70.3667715 L242.404305,67.6394249 L231.359469,68.4106924 L230.689532,71.138039 L241.735161,70.3667715 Z M222.770803,55.079007 L226.853848,55.0326209 L229.188716,45.5211076 L237.354014,44.9511087 C237.786896,43.9086003 238.235634,42.8063403 238.607469,41.7677629 L227.861528,42.5185891 L228.47121,40.0357524 C225.642413,43.3881323 221.867776,47.4622488 218.212856,50.8130563 C219.160281,51.5206412 220.047451,52.2321571 220.649998,52.9059352 L218.38807,55.3856271 L222.770803,55.079007 Z M248.519359,76.1430228 L242.095896,76.5927323 C244.72728,78.6109216 248.157038,81.4679921 249.842583,83.4932573 L241.79383,88.8787645 C240.362782,86.7748787 236.873562,83.4468712 234.2398,81.1888892 L241.255502,76.6509115 L227.986794,77.5778477 L233.29396,81.1951788 C232.994273,81.4546266 232.604996,81.6024332 232.110274,81.6952055 C228.798646,84.605738 222.29273,88.5139651 217.238474,90.5926923 C216.244273,89.1138399 214.347044,86.7465753 212.85812,85.3620676 C217.432716,83.5537951 222.829472,80.319346 226.245752,77.6997095 L221.202596,78.0519295 L226.704797,55.6372128 C223.033228,64.348369 219.459968,70.7307846 218.607682,72.2788231 L212.989729,70.4084404 C213.945875,68.4374234 215.124805,65.7949869 216.320384,63.0912265 L214.218607,63.2382469 L209.578998,82.1378391 C208.09166,88.1955519 205.951827,91.3812563 194.529607,92 C194.823744,89.5989286 194.574798,86.0429215 194,83.821105 C196.267478,83.7228293 199.088347,83.5254917 199.929533,83.4673125 C200.769134,83.4083471 201.053758,83.2102233 201.217873,82.5427349 L205.813083,63.8247561 L197.407559,64.4120516 L199.296067,56.7190315 L210.16331,55.9595571 C207.803865,54.2794361 205.00678,52.6873701 202.512555,51.5528756 L208.187592,45.5006663 C209.645596,46.0533687 211.23838,46.7758915 212.756638,47.5628831 C213.984723,46.4048025 215.257206,45.0658947 216.470228,43.7309179 L203.502,44.6366265 L205.361173,37.0638958 L224.032979,35.7603673 L225.398223,35.2485475 L229.080892,37.5513432 L229.661239,35.1895821 L261,33 L259.201082,40.3297932 L247.73367,41.1301503 C247.195342,42.1199829 246.626887,43.2316774 245.998971,44.3473029 L256.505479,43.6137733 L248.519359,76.1430228 Z" id="Fill-53" fill="#FFF000"></path>
                        <path d="M304.417446,60.7347773 L300.643621,60.9997248 L300.080434,63.3017021 L303.853469,63.0367546 L304.417446,60.7347773 Z M298.151203,71.1770117 L301.924238,70.9120642 L302.503244,68.5495499 L298.729419,68.8137112 L298.151203,71.1770117 Z M293.815773,61.4769448 L290.341734,61.7206651 L289.777756,64.0226424 L293.251795,63.7789221 L293.815773,61.4769448 Z M287.848525,71.897952 L291.322564,71.6550179 L291.90078,69.2925036 L288.427531,69.5354377 L287.848525,71.897952 Z M281.185994,33.7242816 L289.032641,33.1747317 L289.997652,29.23747 L299.627195,29.0990998 C299.419164,29.7084005 298.834621,30.1667518 297.593553,30.4316994 L297.058842,32.6126027 L304.605703,32.0850662 L305.569923,28.1478046 L315.319697,28 C315.096637,28.67141 314.528704,29.0684382 313.286846,29.3333857 L312.752135,31.5142891 L320,31.0064075 L318.160151,38.5184952 L310.912286,39.0263768 L310.036658,42.6004167 L301.891016,43.1704076 L302.765854,39.5963678 L295.218994,40.1246904 L294.344156,43.6987303 L286.317163,44.2608593 L287.192792,40.6868195 L279.346146,41.2355832 L281.185994,33.7242816 Z M313.463237,53.8508589 L307.661307,77.5365384 C306.533351,82.1404929 304.905489,84.4558355 297.043814,84.8284917 C297.248681,83.0273203 297.049351,80.4816227 296.685494,78.8392625 C297.689264,78.8298282 298.946942,78.7417744 299.366168,78.7118991 C300.025065,78.6662998 300.084389,78.4233657 300.574013,76.4240733 L296.800979,76.6882346 L294.768128,84.9880892 L287.939489,85.4653092 L289.97234,77.1662408 L286.498301,77.4099611 L284.436183,85.8301034 L277.188318,86.3371988 L284.652124,55.8682338 L313.463237,53.8508589 Z M317.391306,43.3347223 L315.551458,50.8460238 L284.164873,53.0434372 L282.681761,59.1018515 C280.678177,67.2790597 276.76751,79.4006054 269.626429,87.1634891 C268.859957,85.9684736 266.908579,83.8418177 265.408066,82.7560832 L264.265081,87.4205747 L256,88 L262.840504,60.0735878 C261.45073,61.6601281 260.091014,63.1240222 258.761355,64.4668423 C258.651407,62.2717874 258.026523,57.3753685 257.541645,55.2660089 C263.175094,49.5723889 269.861354,39.5774991 274.722003,30.0684775 L283.295572,32.5646448 C282.922223,33.1267739 282.248298,33.471127 281.305434,33.4782028 C279.156308,37.2000472 276.888532,40.9313259 274.455439,44.6138606 L276.3293,45.1390385 C276.016067,45.6956641 275.357961,46.2184834 274.295658,46.471638 L265.911928,80.69704 C270.975071,74.2101498 273.321155,65.828531 274.865173,59.5295413 L278.158866,46.0808994 L317.391306,43.3347223 Z" id="Fill-55" fill="#FFF000"></path>
                        <path d="M374.724399,24.103545 C376.478115,26.7925542 377.739781,30.534403 378,33.3293285 L369.992362,37.3067225 C369.89616,34.5600126 368.766968,30.5091096 367.237987,27.6248666 L374.724399,24.103545 Z M329.052868,50.7312176 L327.972566,55.1773308 L335.555969,54.6422163 L336.636271,50.1961032 L329.052868,50.7312176 Z M322.123165,75.8823855 C322.720091,75.8404932 322.944037,75.6436786 323.076512,75.0959175 L325.014747,67.1182073 L324.656749,67.1435008 C323.258665,69.9961269 321.430038,73.1775679 319.436605,76.0720863 L322.123165,75.8823855 Z M361.20249,72.0448959 C360.758542,73.8723472 360.713595,74.0549342 361.13231,74.0256887 C361.730025,73.9837964 361.789165,73.9798443 362.027305,73.7229578 C362.593477,73.0842983 363.821236,68.0295617 364.545906,65.0449354 C365.653018,66.2843141 368.000506,67.4952377 369.808632,68.0248192 C367.675627,75.5994151 366.13324,80.735565 360.162404,81.1576493 L356.878918,81.3900328 C355.325491,81.4991108 353.742888,81.012212 352.963021,79.8700549 C352.124801,78.73185 352.016771,77.2426985 353.141231,72.6147888 L355.123624,64.4544916 C351.778632,70.9754575 347.299716,77.3375489 341.293396,82.4895072 C340.066426,81.0193258 337.164593,78.7112991 335.221627,77.7699087 C337.278143,76.0689246 339.125696,74.2628147 340.823426,72.3468363 L334.947215,75.5156306 C334.719326,73.5561791 333.90634,70.8592657 333.035002,68.4081729 L331.51154,74.6801565 C330.061412,80.6486187 327.93235,83.371616 319.036814,84 C319.299399,81.9480694 319.099109,79.1484014 318.721398,77.079872 C317.574858,78.6575505 316.340003,80.1214085 315.161922,81.3418172 C314.263773,79.9688574 312.30267,77.4134292 311,76.24835 C313.636883,73.3680591 316.193334,68.639766 318.005402,64.3209106 L325.280485,66.0218946 L326.124225,62.5503695 L318.182035,63.1115678 L322.856509,43.866419 L347.039498,42.1591116 L342.365024,61.4034699 L334.602622,61.9520215 L333.715513,65.6069241 L339.785705,62.6041181 C341.015041,64.7920009 342.066167,67.710232 342.668613,70.0625222 C348.266468,62.7226811 351.546012,54.2904794 353.620664,47.2012014 L348.126896,47.5892977 L349.975237,39.9767616 L320.060341,42.0887642 L322.041946,33.9276766 L333.148552,33.1435798 L334.909365,25.8962178 L345.404851,25.6946607 C345.168289,26.428961 344.600539,26.8281231 343.287618,27.1600996 L341.985736,32.5191479 L352.435487,31.781686 L350.646286,39.1507726 L355.781268,38.7887602 L359.331282,24.1723116 L369.40963,24 C369.187261,24.6734379 368.545388,25.138205 367.307378,25.4045765 L364.200525,38.1935739 L376.800628,37.3043513 L374.759095,45.7088883 L362.039921,46.6068055 C361.788377,47.403549 361.58099,48.2556219 361.329446,49.0507845 L368.511481,48.9630479 C368.288324,49.6372762 367.721362,50.0372288 366.482564,50.3036004 L361.20249,72.0448959 Z" id="Fill-57" fill="#FFF000"></path>
                        <path d="M432.073788,41.1979421 C431.748517,41.8136337 430.945552,42.2243556 429.92024,42.3557866 C426.961371,49.6736767 422.474354,58.6978227 418.963152,64.689668 L411.772611,63.0021879 C415.254744,56.6567307 419.4872,46.9988994 422.147511,39.4658693 L432.073788,41.1979421 Z M400.826522,31.2443911 L413.974871,30.3228095 L416.450548,20.1955818 L426.849019,20 C426.612529,20.7267821 426.047625,21.1234221 424.739469,21.4512172 L422.720272,29.7094648 L437,28.7080858 L434.980018,36.9663334 L398.806539,39.5026387 L400.826522,31.2443911 Z M409.579779,40.643272 C409.73063,47.9204811 409.022732,57.2700753 407.921209,63.2141986 L398.792397,65.6308078 C400.102911,59.7922987 401.181649,50.1180386 401.313643,42.6452477 L409.579779,40.643272 Z M390.897102,67.5475098 L429.212343,64.859433 L427.193146,73.1176806 L388.878691,75.8049751 L390.897102,67.5475098 Z M384.236896,49.8262305 C382.411762,51.7906545 380.60077,53.6948393 378.790564,55.3627612 C378.547003,53.2465657 377.599474,48.7513127 377,46.6601517 C383.235154,41.0101835 390.709325,31.0065636 396.013448,21.5106741 L404.662996,24.1635462 C404.158589,24.7909727 403.445192,25.0780869 402.6273,25.0765222 C400.299331,28.8528164 397.705802,32.7675825 394.977137,36.5133659 L397.314534,37.0007558 C397.047403,37.6117535 396.394503,38.1320012 395.29298,38.3268007 L385.492412,78.4116898 L377.10371,79 L384.236896,49.8262305 Z" id="Fill-59" fill="#FFF000"></path>
                        <path d="M442.461542,52.9611786 L448.06231,22.837786 L460,22 L450.876881,52.370724 L442.461542,52.9611786 Z M437.202054,63.6757313 C438.118701,59.9249312 441.842037,56.6907789 445.542516,56.4316698 C449.242995,56.1717756 451.487716,58.9874275 450.571069,62.7382276 C449.654422,66.4890277 445.931874,69.72318 442.231395,69.9830743 C438.411113,70.2508203 436.315357,67.306399 437.202054,63.6757313 L437.202054,63.6757313 Z" id="Fill-61" fill="#FFF000"></path>
                        <path d="M186.133575,121.833505 L185.443257,124.026353 L204.85408,122.932297 L205.544398,120.738661 L186.133575,121.833505 Z M183.890837,128.961443 L183.186999,131.197705 L202.597822,130.103649 L203.30166,127.867387 L183.890837,128.961443 Z M211.207711,137.863076 L209.376141,143.68383 L191.759509,144.676847 L188.944952,153.621106 L182.220712,154 L185.03527,145.05653 L168,146.017184 L169.83157,140.19643 L186.86684,139.235776 L187.821992,136.198312 L175.090871,136.915842 L181.408714,116.837634 L214,115 L207.681362,135.078208 L195.846542,135.746008 C195.605567,136.090959 195.180878,136.322242 194.334682,136.494323 L193.591079,138.856093 L211.207711,137.863076 Z" id="Fill-63" fill="#FEFEFE"></path>
                        <path d="M248.140124,117.741542 L231.963695,118.671029 L231.585468,119.894827 L247.762677,118.96534 L248.140124,117.741542 Z M230.050723,124.868923 L246.226372,123.939437 L246.642812,122.59097 L230.466383,123.520457 L230.050723,124.868923 Z M229.557078,149.126323 C229.96572,147.240522 230.125589,144.207459 229.961821,141.938975 L235.092454,140.566837 C235.413752,142.743794 235.42545,145.641142 235.103372,147.524576 L229.557078,149.126323 Z M221.146396,150.355645 C221.929366,148.240233 222.618753,144.88761 222.828533,142.390304 L228.293721,141.330626 C228.214957,143.820042 227.595756,147.08587 226.932883,149.236788 L221.146396,150.355645 Z M255.724945,132.754571 L227.108349,134.398926 L226.717645,135.663754 L249.751294,134.339748 L251.109793,134.137755 L254.338372,134.448636 C254.207357,134.870771 253.950007,135.424676 253.663022,135.93834 C248.470001,149.821466 247.492069,150.333551 238.884864,150.66258 C239.295845,149.187868 239.318461,147.157673 238.930096,145.89679 C240.209829,145.947288 241.353869,145.881009 242.012843,145.843135 C242.583693,145.810785 242.96114,145.705054 243.474282,145.304222 C244.139494,144.685616 245.169675,142.887398 246.81126,138.692872 L242.019081,138.968246 C242.452678,140.641007 242.892513,142.851892 242.876137,144.302933 L237.565358,146.264482 C237.681556,144.766887 237.411728,142.421866 237.005426,140.664678 L241.843615,138.978504 L219.073555,140.287518 L226.908708,114.903372 L236.799545,114.335264 C237.50219,113.176167 238.175201,111.977618 238.605678,111 L246.355827,111.631231 C246.106275,112.018648 245.689835,112.249836 244.973153,112.332685 L243.656766,113.940745 L255.70077,113.248759 L251.249386,127.668431 L228.788146,128.959297 L228.384184,130.266733 L257,128.622378 L255.724945,132.754571 Z M221.912989,142.277472 C219.891617,145.747662 217.321232,149.457719 214.162839,152 L210,149.257303 C212.778606,147.110331 215.369267,143.895789 217.154344,140.770409 L221.912989,142.277472 Z" id="Fill-65" fill="#FEFEFE"></path>
                        <path d="M285.914104,132.270399 L287.636356,132.171045 C288.387443,132.127329 288.673311,131.90239 289.150278,130.915205 C289.664839,131.218832 290.619558,131.497819 291.556262,131.694143 C291.351065,131.37144 291.147433,131.050327 290.929704,130.770545 L295.085353,128.820018 L295.190301,128.479829 L289.318666,128.818429 C289.602967,129.304073 289.902148,129.745207 290.021977,130.197468 L285.914104,132.270399 Z M294.779122,117.697885 L283.919299,118.324215 L283.618551,119.301863 L294.479157,118.675533 L294.779122,117.697885 Z M283.668675,131.398465 C283.354613,132.418239 283.575475,132.404726 285.517806,132.292655 C285.303993,131.721168 284.938239,131.074172 284.530193,130.43115 L283.916166,130.591707 L283.668675,131.398465 Z M293.446119,122.031328 L293.772713,120.969428 L282.912889,121.595758 L282.586296,122.657659 L293.446119,122.031328 Z M281.880634,124.950759 L281.554041,126.013454 L292.413864,125.387124 L292.740458,124.324429 L281.880634,124.950759 Z M279.094016,139.922281 C279.913241,140.500921 280.935314,140.984181 282.115594,141.376035 C283.596621,140.790241 284.957819,140.169474 286.113036,139.517709 L279.094016,139.922281 Z M276.385717,129.982068 L278.797184,131.303084 L279.267886,129.773821 L284.046177,129.749181 L283.491673,129.154644 L276.384151,129.564779 L276.200882,130.160111 L276.385717,129.982068 Z M292.261141,135.742241 L295.633591,137.467034 C295.409597,137.772251 295.073605,137.875579 294.757193,138.059186 C293.112477,139.739468 291.078512,141.27668 288.670178,142.624721 C291.156048,142.856813 293.916038,142.906888 296.878876,142.860787 C295.364954,144.115833 293.22839,146.408933 292.077872,147.894481 C287.471885,147.784793 283.557461,147.258612 280.347916,146.275401 C276.520427,147.581316 272.165846,148.624935 267.43533,149.480972 C267.266943,148.198108 266.53152,146.362038 265.825075,145.277087 C269.138003,144.794622 272.169762,144.243006 274.944633,143.541961 C274.350969,143.076188 273.801947,142.60644 273.32263,142.04926 C272.118854,142.578621 270.840675,143.069034 269.473211,143.565012 C269.090228,142.418859 268.03526,140.76878 267.167477,140.06853 C272.156448,138.654518 276.082619,136.884419 278.839476,134.97284 C278.351544,134.584165 278.238764,133.964988 278.336663,133.082721 C276.872083,134.460171 275.186641,135.851133 273.517646,136.906675 L270.64096,134.277359 C271.477415,133.81079 272.385925,133.25838 273.230212,132.624896 L270.095854,132.806118 L272.017822,126.562685 L275.858625,126.341721 L279.086967,115.849892 L286.017486,115.45009 L286.610367,114.373088 L277.029506,114.925499 L277.984224,111.824051 L277.543284,111.85028 C275.831996,114.452572 274.031424,117.058837 272.112589,119.630925 L273.469871,120.012446 C273.220031,120.401915 272.717218,120.763566 271.928537,120.93525 L263.091714,149.647888 L257,150 L263.025142,130.419227 C261.947462,131.524049 260.897193,132.544617 259.871987,133.479344 C259.871204,131.935773 259.58612,128.489367 259.306518,127.003024 C263.647785,123.039974 268.91949,116.060524 272.829998,109.40934 L278.245812,110.975166 L278.363292,110.593645 L306,109 L304.666214,113.331854 L293.05452,114.0019 C292.817211,114.349243 292.536826,114.699765 292.242344,115.091619 L301.600777,114.551926 L298.372435,125.043755 L301.904658,124.839482 L299.98269,131.082915 L297.421632,131.230754 C297.862573,131.914313 298.169586,132.606615 298.370868,133.221022 L293.536187,135.543532 C293.299661,134.764593 292.84619,133.705872 292.231379,132.740147 C291.16623,134.511835 289.804248,135.133397 287.331692,135.274877 L285.345502,135.390129 C285.103494,135.612682 284.711112,135.760522 284.269388,135.785957 L283.424317,136.418646 L291.238284,135.967974 L292.261141,135.742241 Z" id="Fill-67" fill="#FEFEFE"></path>
                        <path d="M335.925619,117.471565 L330.332746,117.79059 L330.006925,118.840389 L335.599798,118.521363 L335.925619,117.471565 Z M334.266822,144.129064 C333.794108,141.886455 331.759483,138.828209 329.601406,136.723897 L335.565419,133.535998 C337.820382,135.469797 340.096443,138.309596 340.749648,140.664571 L334.266822,144.129064 Z M334.230099,122.93036 L334.556701,121.880562 L328.963828,122.200373 L328.637226,123.250172 L334.230099,122.93036 Z M327.515995,126.860033 L326.968271,128.624104 L331.164879,128.343581 C330.697635,128.039485 330.183509,127.739318 329.703763,127.47844 L331.171911,126.651802 L327.515995,126.860033 Z M318.308616,118.47736 L317.982795,119.527158 L323.664741,119.202632 L323.990563,118.152834 L318.308616,118.47736 Z M316.613096,123.936941 L322.295042,123.61163 L322.621645,122.562617 L316.939698,122.887143 L316.613096,123.936941 Z M317.954667,139.121304 C317.588997,140.296827 317.871844,140.363619 319.589242,140.265396 L323.993688,140.013162 C325.270407,139.94087 325.683739,139.58727 326.516653,137.600039 C327.444892,138.372459 329.825653,139.062371 331.40944,139.260387 C329.34825,143.667027 327.278465,144.89834 323.049822,145.140359 L317.148318,145.478244 C310.982718,145.830272 310.112299,144.311364 311.586699,139.56684 L312.850916,135.494942 L319.177473,135.462725 C318.778986,135.072979 318.367999,134.72488 317.987483,134.416069 L319.191537,133.605147 C314.338598,134.049111 309.852111,134.428642 306.214165,134.718593 C306.00789,135.101267 305.57815,135.373146 305.167943,135.438366 L304.638972,129.89942 C308.633212,129.713191 314.358913,129.386308 320.612805,129.028779 L321.173811,127.222277 L309.459094,127.891759 L313.397077,115.210883 L325.111794,114.541401 L325.425113,113.534034 L308.909027,114.477753 L310.317793,109.943031 L326.833098,108.999312 L327.74571,106.059719 L335.291948,106 C335.104425,106.464394 334.616865,106.781063 333.683938,106.998723 L333.175282,108.637069 L350,107.675277 L348.591234,112.210785 L331.767297,113.171791 L331.453977,114.179943 L343.389034,113.497102 L339.451051,126.177979 L337.910237,126.265986 C339.71202,127.567233 341.374724,129.038994 342.334998,130.26245 L336.865578,133.668009 C336.50694,133.152539 336.071731,132.600138 335.550573,132.052451 C332.23923,132.406836 328.896633,132.721147 325.643109,133.031529 C326.513528,133.847166 327.24018,134.713093 327.608975,135.476083 L322.046574,139.176309 C321.687155,138.24752 320.831582,137.100285 319.818176,136.044986 C319.559551,136.183283 319.211071,136.32708 318.802427,136.391514 L317.954667,139.121304 Z M311.942992,137.44367 C309.63099,140.710932 306.798612,143.842255 302.970018,146 L299,142.761025 C302.201174,141.093606 305.084339,138.49504 307.020514,135.744819 L311.942992,137.44367 Z" id="Fill-69" fill="#FEFEFE"></path>
                        <path d="M243.729265,178.513423 C243.715942,179.66471 243.773934,180.729123 243.93302,181.747359 C245.332662,180.599984 246.772271,179.326602 247.880386,178.277843 L243.729265,178.513423 Z M249.016713,163.546685 L240.579679,164.024888 L239.847727,166.366596 L248.283978,165.888393 L249.016713,163.546685 Z M238.317212,171.261329 L237.519432,173.812789 L245.956466,173.333803 L246.753463,170.782343 L238.317212,171.261329 Z M248.057496,178.268451 L252.257205,181.76849 C251.944519,182.072944 251.299555,182.191907 250.752551,182.141035 C249.364664,183.246145 247.184483,184.808327 245.215111,186.110668 C246.190785,187.986695 247.711896,189.5027 249.946934,190.402755 C248.21188,191.651874 245.56698,194.143852 244.18693,195.781952 C238.68162,192.849339 237.481032,186.838538 238.163612,178.828833 L235.910549,178.956406 L232.889486,188.619081 C234.702908,188.228536 236.547676,187.877123 238.362665,187.486577 L237.20126,192.728027 C232.058792,194.047586 226.696894,195.378884 223.186818,196.194412 C222.968173,196.617046 222.522263,196.930109 222.112401,196.994287 L221.816172,190.725992 L226.37402,189.89168 L235.974027,159.192768 L257,158 L250.708665,178.117398 L248.057496,178.268451 Z M231.501599,159.199812 L235.039104,160.930265 C234.872965,161.186194 234.64805,161.486734 234.406679,161.705878 C232.423984,165.268529 229.603541,169.98873 227.421009,173.358065 C229.046349,176.34703 229.184275,178.680911 228.399818,181.190107 C226.137351,188.425765 221.366344,188.696564 218.009084,188.887532 C218.448725,187.342569 218.594489,185.075213 218.318635,183.734523 C218.955762,183.7807 219.529412,183.747828 219.972188,183.722783 C221.561478,183.632778 222.135128,182.490882 222.632761,180.90209 C223.182116,179.145809 223.04419,176.811145 221.645332,174.34343 C223.150769,171.752054 225.123277,167.942866 226.670249,164.938248 L224.153088,165.081475 L213.963759,197.661892 L208,198 L219.876579,160.024732 L230.477337,159.422869 L231.501599,159.199812 Z" id="Fill-71" fill="#FEFEFE"></path>
                        <path d="M285.292192,176.242655 L285.595055,175.266794 L280.081993,175.582023 L279.77913,176.557091 L285.292192,176.242655 Z M284.094146,180.103224 L284.397009,179.127362 L278.883947,179.441798 L278.581084,180.418453 L284.094146,180.103224 Z M289.680558,159.277434 L289.970802,158.343656 L274.232942,159.244084 L273.942698,160.177862 L289.680558,159.277434 Z M288.522736,163.011752 L288.812191,162.077974 L273.074332,162.978402 L272.784876,163.91218 L288.522736,163.011752 Z M267.989538,176.273622 L267.686674,177.249484 L273.510487,176.916786 L273.81335,175.940924 L267.989538,176.273622 Z M266.488628,181.110052 L272.313229,180.777354 L272.616093,179.800699 L266.791492,180.133397 L266.488628,181.110052 Z M297.427238,155 L294.136752,165.607432 L265.639191,167.237573 L268.930465,156.630141 L297.427238,155 Z M259.188356,168.607273 L300,166.272828 L298.67024,170.558996 L257.859385,172.892647 L259.188356,168.607273 Z M276.158965,188.226139 L275.843482,189.244084 L293.181628,188.253136 L291.812433,192.666349 L251,195 L252.369984,190.586787 L269.574839,189.602986 L269.89111,188.58504 L256.864037,189.32984 L258.048674,185.511355 L271.075748,184.765761 L271.351796,183.874861 L259.481755,184.553756 L262.903955,173.521518 L292.91189,171.805622 L289.48969,182.837859 L277.61965,183.51596 L277.343603,184.40686 L290.503179,183.654915 L289.318541,187.474194 L276.158965,188.226139 Z" id="Fill-73" fill="#FEFEFE"></path>
                        <path d="M335.562476,160.372916 C334.603604,159.282254 333.777125,158.182237 333.247552,157.108726 C332.067763,158.239147 330.584802,159.509118 328.938895,160.747124 L335.562476,160.372916 Z M324.009792,170.234089 L323.669017,171.317735 L333.825695,170.743949 L334.166471,169.660303 L324.009792,170.234089 Z M322.909127,184.659828 L322.294164,186.618186 L330.68351,186.144188 L331.298472,184.18583 L322.909127,184.659828 Z M332.479044,175.035652 L332.833137,173.909909 L322.676459,174.484475 L322.278496,175.611778 L332.479044,175.035652 Z M320.59577,179.59398 C320.42029,180.012626 320.214258,180.393071 319.995691,180.814056 L338.187622,179.784982 L334.709362,190.867011 L329.101841,191.184309 L329.402664,190.226959 L321.013318,190.700956 L320.712495,191.659086 L315.325108,191.963131 L317.456718,185.173585 C315.75754,187.683121 313.656483,190.093647 311.080689,192.08163 C310.569134,191.086079 308.881708,189.136297 307.943204,188.534445 C313.679201,184.076686 315.972973,178.013729 317.371328,173.55597 L319.555425,166.59803 C319.238151,166.779677 318.889542,166.921565 318.585586,167.061893 C318.436741,166.293986 318.233843,165.282063 317.929103,164.317697 L317.379945,166.067122 L314.15707,166.248769 L312.60047,171.206252 L315.958089,170.320625 L315.101058,175.403624 C313.690168,175.892434 312.246377,176.341484 310.836271,176.830294 L307.946338,186.038162 C307.08304,188.787036 306.145319,190.396132 304.254211,191.443916 C302.364669,192.4917 300.033294,192.869027 297,193 C297.320407,191.426765 297.380729,188.886045 297.09479,187.305794 C298.627105,187.260577 300.305131,187.165466 300.923228,187.130384 C301.497454,187.09842 301.726988,186.92223 301.909518,186.339088 L304.236976,178.923523 L300.814336,180.015744 C300.582452,180.480386 300.049745,180.796125 299.669017,180.899812 L300.24716,174.360518 C301.88445,173.981632 303.900901,173.499059 306.119467,172.924493 L308.106933,166.591793 L303.249902,166.865433 L304.989033,161.324808 L309.846063,161.050389 L312.29103,153.259056 L319.52879,153.136658 C319.340776,153.597403 318.928711,153.948223 317.962005,154.125193 L315.896201,160.708144 L319.119076,160.525717 L318.792401,161.567264 C323.724638,159.120097 328.938112,155.22365 331.865648,152.111483 L338.928711,152 C338.703878,152.297808 338.302781,152.60653 337.791226,152.718013 C339.499021,155.568234 343.306306,158.504212 347,159.726626 C345.318057,161.214105 343.285938,163.538096 341.823345,165.298435 C340.394438,164.602251 338.981199,163.577076 337.636898,162.466924 L337.036036,164.383183 L324.497062,165.091841 L324.993733,163.508471 C323.253036,164.630317 321.393263,165.717081 319.555425,166.59803 L341.192714,165.374836 L337.021935,178.665475 L320.59577,179.59398 Z" id="Fill-75" fill="#FEFEFE"></path>
                        <path d="M371.039376,180.443342 C370.581454,181.92089 370.706128,182.079707 371.899548,182.011756 L374.772539,181.847408 C375.922049,181.781037 376.364289,181.051744 378.00779,176.311736 C378.987931,177.210118 381.502582,178.061091 383.095116,178.385045 C380.331117,185.344537 378.062678,187.340412 373.598722,187.597206 L369.090071,187.854789 C363.521299,188.173213 362.828143,186.346425 364.528884,180.857371 L367.343067,171.778743 L345.332225,173.039006 L347.177244,167.086144 L363.839649,166.132453 L365.685451,160.178801 L358.878565,160.568337 C357.322884,162.647967 355.67311,164.609077 354.053132,166.194874 C352.882451,165.348641 350.522271,164.281962 349.1438,163.821314 C353.033001,160.239642 356.846143,154.381596 359.065184,150.022432 L366.005369,151.160224 C365.697997,151.592426 365.236154,151.826306 364.572795,151.864232 C364.102327,152.678859 363.549527,153.623858 362.952817,154.570437 L367.504594,154.309694 L369.127708,149.073482 L376.920225,149 C376.719492,149.510426 376.229421,149.828849 375.26261,150.00821 L374.045666,153.935171 L386.996079,153.194026 L385.176153,159.062343 L372.226523,159.804278 L370.380721,165.75793 L387,164.80661 L385.154982,170.759472 L373.840228,171.406591 L371.039376,180.443342 Z M362.839905,173.281576 C362.576443,173.710619 362.08794,174.030622 361.265405,174.160204 C358.115623,179.980324 354.71414,185.774369 343.201006,190 C343.004193,188.39445 342.066394,185.95926 341,184.775641 C350.832779,181.766814 353.188255,177.525381 355.278701,172.88572 L362.839905,173.281576 Z" id="Fill-77" fill="#FEFEFE"></path>
                        <g id="Group-81" transform="translate(396.000000, 73.000000)">
                            <mask id="mask-6" fill="white">
                                <use xlink:href="#path-5"></use>
                            </mask>
                            <g id="Clip-80"></g>
                            <path d="M122.815429,87.9857318 C114.981379,89.8177602 108.086029,85.7634257 106.362191,78.4384535 C104.698204,71.3616257 108.764066,64.4858264 116.105141,62.7692323 C125.040904,60.6788511 130.234466,66.2848735 131.786629,72.8795472 C133.623866,80.6913851 129.548554,86.4104859 122.815429,87.9857318 L122.815429,87.9857318 Z M173.550904,90.211179 L210.006641,15.9728055 L177.136391,0.250186122 L151.073291,59.782076 C144.566179,44.7057315 129.509966,37.8699807 110.888741,42.2258577 C100.733929,44.6005057 90.1089787,52.193254 85.5627413,63.235681 L55.4219662,54.629938 L47.5170412,79.4883557 L72.3831412,86.3672962 C70.5411787,91.3506017 62.6921662,94.6926988 56.9245162,95.363317 C44.2229287,96.8867353 32.9270287,86.5589014 31.1622412,73.305162 C29.6581163,60.3561063 38.9632162,48.0156326 50.9725912,46.1451262 C59.2137787,44.9695812 70.1214412,47.8577939 75.3583162,53.6986112 L92.3108287,31.722124 C82.3206037,21.217605 62.8339162,16.6285036 47.4036412,18.3576619 C17.9487787,22.0711904 -2.52070875,50.3133244 0.86239125,78.6598989 C4.57545375,108.170239 32.9435662,129.728179 61.5376912,126.089251 C76.7403787,124.238376 89.6301787,114.636129 96.9476288,102.22027 C105.059666,108.560517 115.894879,111.494275 126.958466,108.906035 C127.417579,108.798453 127.868029,108.675951 128.317691,108.552664 C129.464291,114.509701 133.241929,119.890352 138.947366,122.619155 C148.552504,127.212968 160.167341,122.644284 165.278216,112.018048 C169.955179,102.295656 166.454741,93.0742631 156.398366,88.2637164 C155.024966,87.6080183 153.648416,87.089742 152.282104,86.7049611 C152.859341,85.0731759 153.315304,83.3879925 153.644479,81.6596195 L173.550904,90.211179 Z" id="Fill-79" fill="#FEFEFE" mask="url(#mask-6)"></path>
                        </g>
                        <g id="Group-84" transform="translate(511.000000, 0.000000)">
                            <mask id="mask-8" fill="white">
                                <use xlink:href="#path-7"></use>
                            </mask>
                            <g id="Clip-83"></g>
                            <path d="M22.286394,25.449416 C20.993934,26.2711032 19.490094,26.61868 17.962074,26.6694496 C14.955174,18.0081485 9.237774,10.3552107 1.383954,5.86248782 C0.576654,4.59324675 0.191334,3.04984961 1.098474,1.94229032 C1.570374,1.34555175 2.316054,1.03390425 3.050034,0.884719607 C5.472714,0.39967425 7.933614,1.41975354 10.070814,2.66400032 C15.228174,5.70080604 19.490094,10.2427364 22.174074,15.5938567 L22.472814,16.0171975 C25.256634,17.4973278 25.219194,14.1004482 25.753494,17.2114557 C26.287794,20.3224632 24.970374,23.7701125 22.286394,25.449416" id="Fill-82" fill="#F29700" mask="url(#mask-8)"></path>
                        </g>
                        <path d="M562.597666,23.5125069 C566.105171,20.065281 569.167456,16.1868605 571.687977,12 C567.458385,14.2732889 563.229592,16.5473548 559,18.8214206 L563.341296,29.9501255 C567.266095,30.1583419 571.226001,29.7131627 575,28.6417801 C570.865357,26.9317634 566.732309,25.2217467 562.597666,23.5125069" id="Fill-85" fill="#F29700"></path>
                        <path d="M561.670688,46.9114355 C561.058485,48.4835767 560.309105,50.0048269 559.447632,51.4524808 C551.717104,64.4249947 534.794915,70.2132616 519.971147,67.2318305 C514.563227,66.1458943 509.455529,64.0507499 504.759362,61.207116 C496.704313,56.341934 489.861126,49.2947014 484.715802,41.361182 C484.377954,41.7228997 484.01659,42.0846175 483.604275,42.3962271 C481.830376,43.793773 479.608105,44.4420463 477.434433,45.0535216 C474.98719,45.751903 471.777242,46.1762559 470.440743,44.0176935 C469.542428,42.5708225 470.104463,40.5633673 471.340626,39.414796 C472.588547,38.2677905 474.337362,37.8183836 476.023466,37.7056404 C479.083695,37.494247 482.192524,38.2302095 484.840438,39.7639867 L484.939989,39.414796 C482.056131,36.2470254 479.208331,33.0158367 476.985275,29.3485511 C474.54979,25.3446018 472.88877,20.7299602 473.076898,16.0519006 C473.088656,15.7027098 473.11374,15.3284651 473.301085,15.0285995 C473.826278,14.1806767 475.136909,14.4304342 476.036008,14.8665311 C480.457036,17.0243106 483.804161,21.2404364 484.928231,26.0179292 C485.739537,29.4479844 485.465182,33.1411069 486.227104,36.546108 C486.575926,36.6705953 486.925532,36.7958655 487.275922,36.9203528 C488.699431,33.1035259 489.211298,28.6258986 491.397512,25.1574794 C491.696166,24.6963285 492.046556,24.2226504 492.583507,24.0973802 C493.756961,23.7982976 494.543967,25.3195478 494.594134,26.5417153 C494.794021,30.771151 492.034014,34.3632745 488.936943,37.4566659 C495.09346,39.3153627 501.637992,39.8391488 508.03202,39.0405512 C507.669089,38.6295083 507.344566,38.2051554 507.070212,37.7189504 C505.18422,34.4877618 506.22128,29.4612943 509.805135,28.326033 C508.106488,27.6895037 506.421167,27.0655014 504.722521,26.4297551 C503.411106,25.94355 501.93743,25.2819667 501.537656,23.9478389 C500.888612,21.8268576 503.311554,20.143539 505.334723,19.2447252 C502.987032,18.0225577 500.850986,16.4136183 499.015162,14.5173404 C496.991993,12.4214131 495.355272,9.04146608 497.179338,6.78347042 C497.903634,5.89796658 499.027704,5.42428857 500.151774,5.1870581 C503.835963,4.45109558 507.569537,5.99739981 510.803785,7.89367772 C511.541407,8.31803057 512.253161,8.76665454 512.964915,9.22858846 C521.906522,15.765345 528.712867,24.7456536 531.022932,36.0967011 C531.022932,36.1342822 531.098184,36.1217551 531.085642,36.0716471 C530.449139,31.3693163 529.050715,26.7672017 526.964836,22.537766 C528.437728,20.2680263 530.286878,18.2590052 532.447224,16.6508488 C538.004864,12.4723041 545.485337,10.9620151 552.241514,12.6586436 C554.676998,13.2701188 557.086615,14.317691 558.811129,16.1646438 C560.159386,17.6107318 561.008317,19.4443746 561.68323,21.3030715 C564.705049,29.4855654 564.84301,38.8291577 561.670688,46.9114355" id="Fill-87" fill="#FFF000"></path>
                        <path d="M524.500375,24.5745 C524.596375,24.5745 524.596375,24.4255 524.500375,24.4255 C524.403375,24.4255 524.403375,24.5745 524.500375,24.5745" id="Fill-89" fill="#D8EDF0"></path>
                        <path d="M561,46.8686623 C560.387629,48.4432662 559.637081,49.968443 558.77348,51.4183025 C551.030908,64.4176107 534.083137,70.2178331 519.235486,67.2302439 C513.81914,66.1420647 508.704268,64.0433774 504,61.1930855 C510.930788,62.4052245 517.597,62.7551365 524.450849,60.330074 C531.092723,57.9928817 537.122226,53.8684709 543.100698,50.2438222 C547.691914,47.4555102 557.248048,42.1809403 561,46.8686623" id="Fill-91" fill="#FEFEFE"></path>
                        <path d="M554,22.4996173 C554,23.8810654 552.880894,25 551.5,25 C550.119106,25 549,23.8810654 549,22.4996173 C549,21.1189346 550.119106,20 551.5,20 C552.880894,20 554,21.1189346 554,22.4996173" id="Fill-93" fill="#231916"></path>
                    </g>
                    <g id="Group-16" transform="translate(19.000000, 316.000000)">
                        <g id="Group-15">
                            <rect id="Rectangle" fill="#C89F62" x="0" y="0" width="583.2" height="39.366"></rect>
                            <text id="中路富豪私藏の秘境" font-family="NotoSansCJKtc-Bold, Noto Sans CJK TC" font-size="21.87" font-weight="bold" letter-spacing="5.46749983" fill="#111111">
                                <tspan x="169.310251" y="28.645">中路富豪私藏の秘境</tspan>
                            </text>
                        </g>
                        <text id="3公園3校園｜日本專利-中空樓板｜靜謐3" font-family="NotoSansCJKtc-Bold, Noto Sans CJK TC" font-size="21.87" font-weight="bold" letter-spacing="6.34229994">
                            <tspan x="0.477495711" y="85" fill="#FFFFFF">3公園3校園</tspan>
                            <tspan x="151.774155" y="85" fill="#C89F62">｜</tspan>
                            <tspan x="179.986455" y="85" fill="#FFFFFF">日本專利 中空樓板</tspan>
                            <tspan x="416.991645" y="85" fill="#C89F62">｜</tspan>
                            <tspan x="445.203945" y="85" fill="#FFFFFF">靜謐3-4房</tspan>
                        </text>
                        <text id="接待會館｜桃園區文忠一路.如意五街交叉口" font-family="NotoSansCJKtc-Bold, Noto Sans CJK TC" font-size="17.496" font-weight="bold" letter-spacing="1.09350003">
                            <tspan x="1.21013943" y="128" fill="#C89F62">接待會館｜</tspan>
                            <tspan x="94.1576396" y="128" fill="#FFFFFF">桃園區文忠一路.如意五街交叉口</tspan>
                            <tspan x="361.19034" y="128" fill="#C89F62">  貴賓專線｜</tspan>
                            <tspan x="464.268024" y="128" fill="#FFFFFF">03-379-5858</tspan>
                        </text>
                        <text id="投資興建/福鄉機構-金茂建設-建築規劃/" font-family="NotoSansCJKtc-Bold, Noto Sans CJK TC" font-size="8.019" font-weight="bold" letter-spacing="0.364500001" fill="#FFFFFF">
                            <tspan x="1.62348296" y="155">投資興建/福鄉機構-金茂建設 建築規劃/蔡廷芳建築師事務所 營造工程/福鄉營造有限公司 行銷企劃/自建自售 建照號碼/(108)桃市都建執照字第會桃00406號</tspan>
                        </text>
                    </g>
                </g>
            </g>
        </g>
    </g>
</svg>