<?xml version="1.0" encoding="UTF-8"?>
<svg width="618px" height="215px" viewBox="0 0 618 215" version="1.1" xmlns="http://www.w3.org/2000/svg" xmlns:xlink="http://www.w3.org/1999/xlink">
    <!-- Generator: Sketch 61.1 (89650) - https://sketch.com -->
    <title>早鳥優惠插圖</title>
    <desc>Created with Sketch.</desc>
    <defs>
        <polygon id="path-1" points="0.134694492 0.0714077419 213.914734 0.0714077419 213.914734 128.682613 0.134694492 128.682613"></polygon>
    </defs>
    <g id="Page-1" stroke="none" stroke-width="1" fill="none" fill-rule="evenodd">
        <g id="電腦版" transform="translate(-578.000000, -144.000000)">
            <g id="首圖">
                <g id="早鳥優惠插圖" transform="translate(578.000000, 144.000000)">
                    <path d="M165,147.5 C165,113.534316 137.241638,86 102.999577,86 C68.7583623,86 41,113.534316 41,147.5 C41,181.465684 68.7583623,209 102.999577,209 C137.241638,209 165,181.465684 165,147.5" id="Fill-1" fill="#FEFEFE"></path>
                    <path d="M151.119619,108.595595 L527.417105,82.1393839 C562.849493,79.6487538 592,110.908855 592,146.073569 C592,181.237453 562.936567,209.686997 527.417105,210.006925 L106.406324,213.967068 C98.9045704,215.018023 198.35471,191.149415 151.119619,108.595595" id="Fill-3" fill="#D70110"></path>
                    <path d="M95.2112214,87.7905273 C127.362419,83.717117 156.690043,106.788521 160.715616,139.322629 C164.740355,171.855892 141.940731,201.532028 109.789534,205.605438 C77.6383364,209.678849 48.310712,186.6066 44.2851392,154.073337 C40.2595663,121.540074 63.0600238,91.8639377 95.2112214,87.7905273 M96.3072849,96.6488865 C123.623791,93.1882602 148.541303,112.789754 151.962122,140.431717 C155.382107,168.072836 136.009977,193.286453 108.69347,196.747079 C81.3769641,200.208549 56.4586182,180.605368 53.038633,152.965093 C49.6186478,125.323129 68.9907787,100.110357 96.3072849,96.6488865 M100.25278,72.918275 L100.25278,72.918275 C100.367058,73.8349189 99.5637781,74.6983873 98.4668805,74.8368124 L96.4799525,75.0891849 L96.9187115,78.6418132 C132.791854,75.6040586 164.956398,101.735163 169.469944,138.21354 C174.101105,175.639791 147.871486,209.777603 110.885597,214.463797 C73.8997087,219.149148 40.1611375,192.609521 35.529977,155.18327 C31.018099,118.720086 55.8021479,85.3815938 91.2840774,79.357572 L90.8444842,75.8024115 L88.7891565,76.0632246 C87.6922588,76.2024937 86.7029655,75.5660761 86.5903562,74.6494321 L86.5903562,74.6494321 C86.4760787,73.7336323 87.2284754,72.4726138 88.3136951,72.2286819 L97.9922532,71.0006966 C99.1041655,70.9693515 100.141005,72.001631 100.25278,72.918275 M95.9786327,93.9918008 C124.745713,90.3471705 150.986175,110.989384 154.588004,140.098315 C158.189832,169.207246 137.789203,195.759535 109.022123,199.404165 C80.2550421,203.049639 54.01458,182.406581 50.4127517,153.296806 C46.8109234,124.187875 67.2115522,97.6364311 95.9786327,93.9918008" id="Fill-5" fill="#D70110"></path>
                    <path d="M95.0089243,99.0089733 L95.0096607,99.0089733 C95.6385064,98.9294993 96.2165437,99.38685 96.2960699,100.027141 L96.9911874,105.681795 C97.0692408,106.321336 96.6200653,106.910644 95.9904833,106.990868 C95.3616376,107.071092 94.7828639,106.613741 94.7048104,105.97345 L94.0089566,100.318796 C93.9301668,99.6785048 94.3800786,99.0891972 95.0089243,99.0089733" id="Fill-7" fill="#D70110"></path>
                    <path d="M106.009172,187.00912 L106.009172,187.00912 C106.638172,186.92889 107.216351,187.387026 107.295897,188.027366 L107.991185,193.680956 C108.069257,194.321297 107.619972,194.9114 106.990972,194.99088 C106.361972,195.07111 105.782319,194.612974 105.704247,193.972634 L105.008959,188.319044 C104.93015,187.677953 105.380172,187.0886 106.009172,187.00912" id="Fill-9" fill="#D70110"></path>
                    <path d="M106.990975,194.99034 L106.990248,194.991081 C106.36108,195.070323 105.782827,194.612643 105.704272,193.972039 L105.008913,188.318426 C104.930358,187.678563 105.379868,187.089058 106.009036,187.009075 C106.638205,186.929092 107.216458,187.386773 107.295013,188.027377 L107.991098,193.68173 C108.069654,194.321594 107.619416,194.911098 106.990975,194.99034" id="Fill-11" fill="#D70110"></path>
                    <path d="M95.9909676,106.990924 L95.9902402,106.990924 C95.3618017,107.070913 94.7828237,106.613199 94.7042689,105.972548 L94.0089133,100.318523 C93.9303585,99.6786121 94.3798666,99.0890648 95.0090324,99.009076 C95.6374709,98.9290872 96.216449,99.386801 96.2950038,100.027452 L96.9910867,105.681477 C97.0696415,106.322129 96.6201334,106.910935 95.9909676,106.990924" id="Fill-13" fill="#D70110"></path>
                    <path d="M130.483908,186.770566 L130.483908,186.771282 C129.910346,187.147826 129.085903,187.049037 128.652637,186.551512 L125,182.369445 C125.713032,181.931337 126.407908,181.474617 127.084628,181 L130.735615,185.182784 C131.170531,185.679592 131.056644,186.394739 130.483908,186.770566" id="Fill-15" fill="#D70110"></path>
                    <path d="M73.9080101,114 L70.2652912,109.827937 C69.8286298,109.327491 69.9431912,108.608865 70.5193186,108.23011 C71.0971062,107.851356 71.9256006,107.950725 72.362262,108.450451 L76,112.618193 C75.2852368,113.059594 74.5870767,113.521156 73.9080101,114" id="Fill-17" fill="#D70110"></path>
                    <path d="M145.902693,166.340656 L145.902693,166.340656 C145.637597,166.887334 144.905838,167.146036 144.275254,166.915927 L139,164.984515 L139.01647,164.953879 L139.032941,164.923243 L139.048627,164.893288 L139.065098,164.862653 C139.143528,164.714239 139.22039,164.565826 139.296468,164.416052 L139.30039,164.409244 L139.303527,164.401755 L139.319213,164.370438 L139.319998,164.369077 L139.45882,164.092674 L139.473722,164.061358 L139.476075,164.056592 L139.479212,164.051146 L139.481565,164.0457 L139.484702,164.040253 L139.487055,164.034807 L139.490192,164.029361 C139.538035,163.932007 139.585094,163.835334 139.631368,163.7373 L139.633721,163.731173 L139.636858,163.726407 L139.638427,163.720961 L139.641564,163.715515 L139.644701,163.708707 L139.647838,163.701218 L139.65176,163.69441 L139.654897,163.68624 C139.723916,163.541912 139.792151,163.396903 139.858033,163.251213 L139.872935,163.219896 L139.971757,163 L145.240737,164.928009 C145.870537,165.158798 146.168574,165.793979 145.902693,166.340656" id="Fill-19" fill="#D70110"></path>
                    <path d="M63.0351327,131 L57.7589562,129.071123 C57.1298313,128.840474 56.8317423,128.204999 57.0968847,127.658654 L57.0976691,127.658654 C57.3628115,127.112308 58.095483,126.853764 58.7246079,127.084413 L64,129.013971 L63.9835267,129.043907 L63.9796044,129.052072 L63.9662689,129.075885 L63.9623466,129.08473 C63.8846866,129.233733 63.8070265,129.382737 63.7309354,129.533101 L63.7262287,129.541265 L63.7223065,129.54943 L63.7183843,129.557594 L63.714462,129.566439 L63.6987731,129.596376 L63.636802,129.720205 L63.6218975,129.750822 L63.6062086,129.781439 L63.5905197,129.812737 C63.5214886,129.952895 63.4532419,130.093053 63.3865641,130.234572 L63.3834263,130.241376 L63.3795041,130.24818 L63.3653841,130.278797 L63.3504796,130.310095 L63.2335973,130.560474 L63.2194773,130.591092 L63.217124,130.597895 L63.2139862,130.604019 L63.2108484,130.610142 C63.1504461,130.740095 63.0923972,130.870047 63.0351327,131" id="Fill-21" fill="#D70110"></path>
                    <path d="M150.990925,143.009032 L150.990925,143.00976 C151.070905,143.638198 150.613242,144.216449 149.972661,144.295731 L144.318522,144.991087 C143.677941,145.069642 143.0892,144.620133 143.00922,143.990968 L143.00922,143.990968 C142.9285,143.361802 143.386903,142.783551 144.027484,142.704996 L149.680883,142.008913 C150.321463,141.930358 150.910945,142.379867 150.990925,143.009032" id="Fill-23" fill="#D70110"></path>
                    <path d="M62.990925,152.009025 L62.990925,152.009025 C63.070905,152.638193 62.6132418,153.217173 61.9726615,153.295728 L56.3185221,153.991086 C55.6779418,154.069641 55.0892004,153.620132 55.0092204,152.991691 L55.0092204,152.990963 C54.9284999,152.361795 55.3869036,151.783542 56.0267433,151.704987 L61.6808827,151.008902 C62.321463,150.930347 62.910945,151.380584 62.990925,152.009025" id="Fill-25" fill="#D70110"></path>
                    <path d="M139.769018,118.520808 L139.769018,118.520808 C140.148854,119.098835 140.049923,119.928864 139.54805,120.366334 L135.382138,124 C134.940201,123.282249 134.478766,122.581964 134,121.899976 L138.166634,118.265478 C138.668507,117.828008 139.389905,117.943613 139.769018,118.520808" id="Fill-27" fill="#D70110"></path>
                    <path d="M69,174.077346 L64.8120619,177.736177 C64.3159622,178.170262 63.6035773,178.056592 63.2281119,177.484128 C62.8526465,176.911663 62.9511527,176.089621 63.4465386,175.65636 L67.6309076,172 C68.0684747,172.710021 68.5260285,173.402744 69,174.077346" id="Fill-29" fill="#D70110"></path>
                    <path d="M120.338081,102.097551 L120.338081,102.097551 C120.887135,102.365338 121.146961,103.103137 120.915169,103.736665 L118.994507,109 C118.340156,108.651639 117.67418,108.325396 117,108.024431 L118.919294,102.765045 C119.151086,102.130728 119.789028,101.830553 120.338081,102.097551" id="Fill-31" fill="#D70110"></path>
                    <path d="M87,185.961983 L84.5775368,191.246268 C84.2903987,191.871752 83.5001336,192.166967 82.8191335,191.903688 C82.1398274,191.639629 81.8179616,190.912884 82.1050997,190.287401 L84.529257,185 C85.3398504,185.344289 86.1639961,185.665209 87,185.961983" id="Fill-33" fill="#D70110"></path>
                    <path d="M26,71.109317 C20.77622,75.1414943 16.8706601,80.9028033 15.2794752,87.7782774 C13.6383578,94.8647613 14.7343779,101.935645 17.8776338,107.921101 L15.0081749,110 C11.297352,103.210736 9.96914544,95.1168237 11.8466104,87.0056692 C13.674975,79.1038824 18.2388128,72.5207022 24.324762,68 L26,71.109317 Z" id="Fill-35" fill="#D70110"></path>
                    <path d="M22,63.241055 C14.1201834,68.7969557 8.18950773,77.1104741 5.86444256,87.1624354 C3.48873921,97.429584 5.29883978,107.6764 10.183279,116.16444 L6.2712646,119 C0.598071262,109.420773 -1.5398901,97.7743921 1.16024095,86.1025952 C3.81059209,74.6459857 10.6484637,65.2073932 19.7178486,59 L22,63.241055 Z" id="Fill-37" fill="#D70110"></path>
                    <path d="M155,53.5603973 C161.24708,56.3039624 166.623133,61.125494 169.979632,67.6575884 C173.438052,74.3887643 174.16348,81.7983552 172.568736,88.6294991 L175.96549,90 C177.919951,82.2136067 177.161976,73.713767 173.205092,66.0093987 C169.348415,58.5032575 163.103904,53.0186906 155.871028,50 L155,53.5603973 Z" id="Fill-39" fill="#D70110"></path>
                    <path d="M156,44.6759552 C164.744394,48.1512929 172.325364,54.7784639 176.941639,63.9749904 C181.657707,73.3685064 182.438591,83.762254 179.904671,93.1990737 L184.264809,95 C187.272748,84.310768 186.46359,72.4761096 181.103023,61.7979159 C175.841417,51.3167117 167.135277,43.8166731 157.117686,40 L156,44.6759552 Z" id="Fill-41" fill="#D70110"></path>
                    <path d="M90.2572804,54.7142909 C90.6170243,54.6684835 90.9751026,54.6252209 91.3340137,54.5836549 L91.5546899,54.5582063 C91.9094373,54.5183369 92.2633519,54.4810124 92.6172665,54.4453844 L92.750505,54.4318118 C93.0894303,54.3987286 93.4283556,54.3664938 93.7672809,54.3368038 L93.8980211,54.3257761 C94.2427756,54.2952378 94.5875301,54.2689409 94.9322846,54.2426441 L95.1887687,54.2248301 C95.5360214,54.2002298 95.8824413,54.1764778 96.2288613,54.1552707 L96.3262919,54.1501809 C96.640235,54.1315187 96.9533454,54.1154012 97.2664558,54.1009804 L97.5545839,54.0874078 C97.8835163,54.0729869 98.2124488,54.0594144 98.5405485,54.0492349 L98.7837086,54.0416004 C99.0893243,54.0314209 99.3957728,54.0237864 99.7013885,54.0178484 L99.8629401,54.0136069 C100.185211,54.0076689 100.507481,54.0051241 100.829752,54.0025792 L101.157851,54.0008827 C101.47346,53.9991861 101.789901,54 102.10551,54.0025792 L102.371154,54.0051241 C102.64346,54.0076689 102.914933,54.0119104 103.186407,54.0170001 L103.45788,54.0220898 C103.765161,54.0288761 104.072442,54.0382072 104.379724,54.0483867 L104.743631,54.0611109 C105.026763,54.0721387 105.309062,54.0840147 105.591361,54.0967389 L105.9103,54.1128564 C106.165119,54.1255807 106.419105,54.1400015 106.67309,54.1544224 L107.0345,54.1773261 C107.335119,54.1968366 107.634906,54.2171955 107.933859,54.2384026 L108.271952,54.2655478 C108.507617,54.2833618 108.743283,54.3028724 108.978948,54.3232312 L109.377831,54.3580109 C109.643475,54.3817629 109.908287,54.4072115 110.173931,54.4343566 L110.573646,54.4750744 C110.825134,54.5022195 111.074956,54.5285163 111.325611,54.5573581 C111.506315,54.5768686 111.687853,54.5997723 111.867725,54.6209795 L112.373198,54.6820561 L112.836202,54.7414361 C113.096017,54.7753675 113.355832,54.8109955 113.615647,54.8474718 L114.134444,54.9221209 L114.569134,54.9874389 C114.854764,55.0307015 115.139561,55.0748123 115.425191,55.121468 L115.795761,55.1825446 C115.978131,55.2122346 116.161334,55.2427729 116.342871,55.2741595 L116.761739,55.3488086 C117.057362,55.4014023 117.352152,55.4548443 117.64611,55.5099829 L117.960053,55.5702112 C118.284822,55.6329843 118.607925,55.6966057 118.931861,55.7636203 L119.230815,55.8238486 L119.83122,55.9510914 L120.046067,55.9977471 C120.425797,56.0800309 120.803861,56.1657077 121.181092,56.2530811 L121.306836,56.2819229 C121.974694,56.4380074 122.640886,56.6008783 123.303747,56.7730803 L123.354545,56.7858045 C123.798395,56.9003231 124.241413,57.0190831 124.681933,57.140388 L124.69026,57.1429328 C125.356452,57.3261625 126.019314,57.5187234 126.679677,57.7180705 L126.762118,57.7418225 C129.673378,58.6231913 132.528845,59.6521619 135.317692,60.8219478 C140.765479,59.2237776 146.80701,59.7123901 152.192342,62.6686657 C163.112899,68.6677421 167.192494,82.5482407 161.305019,93.6735073 C160.737923,94.7431956 160.099211,95.7492624 159.398044,96.6874664 L120.331697,75.2317767 C120.717256,74.1188258 121.18942,73.0228407 121.756516,71.9514559 C123.31374,69.0104495 125.413079,66.5555107 127.858837,64.6468679 C127.650652,64.5705222 127.441634,64.4950248 127.233449,64.4203757 L126.865378,64.290588 L126.393214,64.1260205 L125.855264,63.9419425 L125.458879,63.8104583 L124.946744,63.6424977 L124.440438,63.4796268 L124.066538,63.3617151 C123.835869,63.2896109 123.606032,63.2183549 123.375363,63.1487954 L123.109719,63.0699049 L122.555947,62.9061857 L122.172886,62.794212 C121.968032,62.7365286 121.762345,62.6788452 121.555826,62.6211617 L121.234388,62.5320917 C121.002886,62.4693186 120.771384,62.4065455 120.538217,62.3454689 L120.1868,62.253854 L119.70048,62.129156 L119.245804,62.0154858 L118.689533,61.8806083 L118.313967,61.7915383 C118.092459,61.7397929 117.871782,61.6888958 117.650273,61.6388469 L117.267213,61.5540184 L116.775063,61.4471344 L116.3029,61.3470366 L115.773277,61.2384561 L115.401042,61.1646552 C115.174536,61.1205444 114.948864,61.0764335 114.722358,61.0340192 L114.344294,60.9644598 L113.811341,60.8686035 L113.320856,60.783775 L112.821212,60.7014912 L112.441483,60.6395664 C112.213312,60.6030901 111.985141,60.5674621 111.756137,60.5335307 L111.384735,60.4783921 L110.889255,60.4079844 C110.685233,60.379991 110.482045,60.3528458 110.277191,60.326549 L109.844166,60.2705621 L109.472763,60.2239064 C109.242094,60.195913 109.010593,60.1687678 108.780756,60.1433193 L108.356891,60.0966636 L107.904713,60.0500078 C107.695696,60.0288007 107.485845,60.0075936 107.275994,59.9872347 L106.85213,59.9490618 L106.253389,59.8981647 L105.795382,59.8616884 L105.317389,59.827757 L104.813581,59.7938256 L104.256478,59.7598941 L103.796805,59.7344456 L103.219716,59.7073004 L102.747553,59.6877899 L102.280385,59.6716724 L102.247076,59.6699759 L101.640008,59.6521619 L101.616691,59.6521619 L101.201987,59.643679 L100.723994,59.6351961 L100.171887,59.6292581 L99.6705771,59.6267133 L99.2292247,59.6267133 C99.0010539,59.6275616 98.7737157,59.6292581 98.5463776,59.6326513 L98.1566552,59.6385893 C97.9626267,59.6419824 97.7702637,59.6453756 97.5762352,59.6504653 L97.1015732,59.6631896 L96.5544628,59.6810036 L96.1572456,59.6962727 C95.9249111,59.7064521 95.6925765,59.7166316 95.460242,59.7285076 L95.0388754,59.750563 L94.5217437,59.7811013 L93.9504838,59.8175776 L93.4508396,59.8532056 L93.0669463,59.881199 C92.8237861,59.8998613 92.5789605,59.9210684 92.3341348,59.9422756 L91.9510743,59.976207 C91.7229034,59.9982624 91.4938998,60.0194696 91.2640635,60.0432216 L90.8485261,60.0864841 L90.3255652,60.142471 L89.9591594,60.184037 L89.6360562,60.2298444 C89.434533,60.2586861 89.2338426,60.2883761 89.0323194,60.3189144 L88.7433585,60.362177 C88.48854,60.4011981 88.2337215,60.4419158 87.9805684,60.4834818 L87.6141627,60.5437101 C87.3643406,60.5861244 87.1145185,60.629387 86.8655291,60.6726495 L86.5407604,60.7320295 C86.3442337,60.7676575 86.1493724,60.8041338 85.9553439,60.8406101 L85.541472,60.9195007 C85.3391161,60.9585218 85.1359275,60.9992395 84.9327388,61.0399572 L84.531358,61.1222409 C84.2965252,61.1697449 84.0625252,61.2197938 83.8285251,61.2698427 L83.4754432,61.3478849 C83.2755856,61.3919958 83.0748952,61.4369549 82.8750375,61.4827624 L82.4994716,61.5692875 C82.2937847,61.6167915 82.0905961,61.6651438 81.8865747,61.7143443 L81.5351583,61.8000212 C81.2953291,61.8585529 81.0554999,61.9179329 80.8165034,61.9798578 L80.4351083,62.0782589 L79.9171438,62.2148329 L79.4374854,62.3454689 C79.2634427,62.3921246 79.0902327,62.4396286 78.9170227,62.4888292 L78.5531152,62.5914717 C78.3299408,62.6550932 78.1067664,62.7204112 77.8844247,62.7857292 L77.4780474,62.907034 L77.0008872,63.0520909 C76.8085242,63.1106226 76.6178267,63.1700026 76.4271291,63.2302309 L76.0207519,63.3591703 C75.8442109,63.4151571 75.66767,63.4728406 75.4919618,63.530524 L74.9631716,63.7061191 L74.5759474,63.8367551 C74.4052356,63.8952868 74.2361893,63.9538185 74.0663103,64.0123503 L73.5358547,64.1998214 L73.1386376,64.3423334 C72.9421109,64.4135894 72.7455842,64.4848454 72.5498902,64.5577979 L72.117698,64.7189722 L71.7113207,64.8733602 C71.4956409,64.9556439 71.2799612,65.0387759 71.0659469,65.1236045 L70.719527,65.2601785 L70.3081532,65.4247459 L69.7277332,65.6622659 L69.2830499,65.8471922 L68.9233061,65.998187 C68.7134555,66.0881053 68.5052704,66.1771753 68.2970854,66.2679419 L67.9256832,66.4308127 L67.4951564,66.6225253 L66.9838539,66.8524107 L66.5383378,67.0576958 L66.1586082,67.2341393 L66.1261313,67.2485601 C65.9462594,67.3333887 65.7663875,67.4182173 65.5873483,67.5047424 L65.5607006,67.5166184 L65.1776401,67.702393 L64.7812557,67.8958021 L64.2174905,68.1757364 L63.876067,68.3479384 L63.4322164,68.5744306 C63.2481808,68.6694386 63.0649779,68.7635983 62.881775,68.8594546 L62.5028782,69.0604983 L62.0981664,69.2768112 L61.5943585,69.5499592 L61.1946431,69.7705135 L60.8382303,69.9673157 C60.643369,70.0767446 60.4493405,70.1861734 60.2561448,70.2972989 L59.9030629,70.5000391 L59.3925931,70.7969391 L58.9978741,71.031066 L58.6173118,71.2584065 L58.1401516,71.547672 L57.7012975,71.8174268 L57.3432191,72.0396776 L56.9118596,72.3128256 L56.4388631,72.6148153 L56.0932759,72.8387628 L55.5886353,73.1704425 L55.2130694,73.4189902 L54.8558238,73.6599033 L54.3187063,74.027211 L54.3786636,74.0535079 C54.4810906,74.0993153 54.5826849,74.1442744 54.6842793,74.1900818 L54.8541583,74.2689724 C54.9707419,74.3232627 55.0873256,74.3800978 55.2030765,74.4360847 L55.355468,74.5115821 C55.4670552,74.5667207 55.5778096,74.6244041 55.6885641,74.6812393 L55.8367919,74.7584333 C55.9592047,74.8245995 56.0807848,74.8899175 56.2031976,74.9586287 L56.3031265,75.012919 C56.4363649,75.0884164 56.5687706,75.1630655 56.7003436,75.2411078 L56.7661301,75.2809772 C56.9035322,75.3615644 57.0401016,75.4438481 57.1758383,75.5295249 L57.2457885,75.5727875 C57.3848561,75.6601609 57.523091,75.7483826 57.6596604,75.8391492 L57.7087921,75.8713841 C57.8428633,75.9604541 57.9761018,76.0512206 58.1085075,76.1428355 L58.1792904,76.1928843 C58.3116961,76.2844992 58.4424364,76.3786589 58.5715111,76.4728186 L58.6181446,76.5075983 C58.7538812,76.607696 58.8904506,76.7103386 59.0245218,76.8138295 L59.0736535,76.8528506 C59.2110557,76.9588863 59.3467923,77.0674669 59.482529,77.177744 L59.5058457,77.1972546 C59.6440806,77.3100766 59.7823155,77.4245951 59.9180522,77.5416586 L59.9197177,77.5442034 L59.9313761,77.5526863 L59.9463654,77.5654106 C60.2278316,77.8088686 60.5043014,78.0591128 60.7757747,78.3169917 L60.7874331,78.3271711 C60.9231698,78.4569588 61.057241,78.5867465 61.1888139,78.7199274 L61.204636,78.7351965 C61.4752766,79.0066479 61.740088,79.2857339 62.0007358,79.5741511 C62.8093266,80.4690925 63.532978,81.4123861 64.1758535,82.3938527 L31.5082833,113 C30.6014291,112.266233 29.7395428,111.452727 28.9301193,110.556937 C20.5311003,101.253788 21.1256769,86.7769448 30.2575073,78.2219837 C30.3990732,78.0896511 30.540639,77.9598634 30.6838704,77.8326206 L30.6896996,77.8266826 L30.6905323,77.8266826 C30.8312654,77.7019846 30.973664,77.5781349 31.1160626,77.45683 L31.1293864,77.4458023 L31.150205,77.4279883 C31.2851089,77.3151663 31.4191801,77.2040409 31.5557495,77.0937637 L31.5749025,77.0784946 L31.5998847,77.058984 C31.7381196,76.9478586 31.8771873,76.839278 32.0170876,76.732394 L32.0495645,76.7077937 C32.1911304,76.5992132 32.3343617,76.4931775 32.4792585,76.3896866 L32.5042407,76.3710243 C32.6466393,76.26923 32.7898707,76.1674358 32.9347675,76.0681863 L32.9838992,76.0342549 C33.1229668,75.9400952 33.2628672,75.8467838 33.4036003,75.7543206 L33.4585611,75.7195409 C33.5951306,75.6313192 33.7325327,75.5447941 33.8691021,75.4608138 L33.9557071,75.4082201 C34.0856146,75.3284812 34.2155221,75.2504389 34.3462623,75.1757898 L34.437031,75.1231961 C34.5661058,75.048547 34.6951805,74.9764427 34.8242553,74.9051867 L34.9400062,74.8432618 C35.0632517,74.775399 35.1889955,74.7092327 35.3130738,74.6456113 L35.431323,74.5845347 C35.5570668,74.520065 35.684476,74.4564435 35.8118853,74.395367 L35.9301344,74.3385318 C36.0517145,74.2808484 36.1716291,74.2240133 36.2940419,74.1688747 L36.4505971,74.098467 C36.5638498,74.0475699 36.6779352,73.997521 36.7911879,73.9491687 L36.9602342,73.878761 C37.0726541,73.8321053 37.1842413,73.7862979 37.2958286,73.7413387 L37.4698713,73.6734759 C37.579793,73.6310616 37.6905475,73.5886473 37.8021347,73.5487779 L37.987003,73.480915 C38.0952593,73.4418939 38.2043482,73.4028727 38.31427,73.3663964 L38.503302,73.302775 C38.6107255,73.267147 38.7198145,73.2323673 38.827238,73.1984359 L39.0287612,73.1356627 C39.1303555,73.1051245 39.2319498,73.0754345 39.3335441,73.0457445 L39.5500566,72.9846679 C39.6499854,72.9558262 39.750747,72.9295293 39.8506759,72.9040808 L40.0813449,72.8447008 C40.1812738,72.8192522 40.2812026,72.7946519 40.3802987,72.7717482 L40.6093023,72.7183062 L40.8707828,72.6623193 L40.8882703,72.6589262 L41.133096,72.6080291 L41.3954092,72.5579802 L41.4045693,72.5562836 L41.6577224,72.5104762 L41.9217011,72.4663653 L41.9416868,72.4629722 C42.0799217,72.4409168 42.2181566,72.4205579 42.3572242,72.4010473 L42.467146,72.3849299 C42.6278648,72.3628745 42.7894165,72.3433639 42.9501354,72.3247016 L42.9851104,72.3204602 C43.1508258,72.3017979 43.3157084,72.2856805 43.4814237,72.2704114 L43.5172315,72.2670182 C43.6821141,72.2525974 43.8461639,72.2398731 44.0110465,72.2296936 L44.0485198,72.2271488 C44.2100715,72.2169694 44.3716231,72.2084865 44.5331747,72.2017002 L44.5864701,72.1991554 C45.112762,72.1787965 45.6382211,72.1762516 46.164513,72.1932174 C47.6576164,71.0616043 49.1881931,69.974102 50.7545777,68.9366486 L50.7770617,68.9213795 C51.154293,68.6711352 51.5340226,68.4242841 51.9154177,68.1791295 L51.9570547,68.1528327 C52.5241509,67.7897664 53.0962435,67.4334864 53.671667,67.0831444 L53.8207276,66.9923778 C54.3911547,66.6471256 54.9665782,66.306963 55.5461655,65.9735867 L55.6485926,65.915055 C56.0075036,65.7097699 56.3680802,65.5061813 56.731155,65.3042893 L56.8552333,65.2355782 C57.4373188,64.9132296 58.0244007,64.5976674 58.6156463,64.2888914 L58.799682,64.1938834 C59.1136251,64.0284677 59.4292336,63.8672934 59.7473404,63.7078157 L60.0171483,63.5712417 C60.1886928,63.4855648 60.3610701,63.399888 60.5334473,63.3150594 L60.8715399,63.1496437 C61.1413477,63.0190077 61.4111556,62.8883717 61.682629,62.7602806 L62.0357109,62.59232 L62.5220312,62.3649795 C62.7393764,62.26573 62.9550562,62.1664806 63.1724014,62.0689278 L63.1923872,62.0595966 L63.7136826,61.8263181 L64.1000741,61.6558126 C64.3415688,61.5506252 64.581398,61.4462861 64.8237255,61.3427952 L65.2792344,61.1493861 L65.7355761,60.9585218 C65.9662452,60.8635138 66.1960815,60.7685058 66.4284161,60.6751944 L66.90974,60.4826335 L67.4143806,60.2841347 C67.5642739,60.2247547 67.7141671,60.166223 67.8648931,60.1085396 C68.1147152,60.0126833 68.3645373,59.9176753 68.6151922,59.8243639 L68.9774342,59.6903347 C69.2497403,59.5910853 69.5220464,59.4901393 69.7951852,59.3934347 L70.087477,59.2899439 C70.3189789,59.2085084 70.5513134,59.1279213 70.7844807,59.0464859 L71.1284025,58.9294225 C71.4082032,58.8335662 71.6896694,58.7402548 71.9711357,58.6477916 L72.3033991,58.5400593 C72.5532212,58.4594722 72.8030432,58.3797333 73.0536981,58.3008428 L73.3260042,58.2151659 C73.6049722,58.1294891 73.8847729,58.0446605 74.1645737,57.9606802 L74.5026663,57.8597342 C74.7999545,57.7723608 75.0980756,57.6849874 75.3970294,57.6001588 L75.6751646,57.5238131 C75.9233212,57.4534054 76.1714779,57.3855425 76.4204672,57.318528 L76.7019334,57.2421822 C77.0083819,57.1598985 77.3148303,57.0801597 77.6229442,57.0021174 L77.9318909,56.9232268 C78.2466667,56.8443363 78.5622753,56.766294 78.8770512,56.6907965 L79.0327736,56.653472 C79.3317274,56.5830643 79.6315139,56.5135048 79.9329659,56.445642 L80.1661332,56.3922 C80.487571,56.320944 80.8090087,56.2505363 81.132112,56.1818251 L81.4144109,56.1224451 C81.7216921,56.0579754 82.0289733,55.9960506 82.3370872,55.9341257 L82.4328524,55.9154634 C82.7734432,55.8484489 83.1156994,55.7839792 83.4579557,55.721206 L83.7111088,55.6745503 C84.0508668,55.6126254 84.3922903,55.5523972 84.7337139,55.4938655 L84.8602904,55.4735066 C85.1967175,55.4175197 85.5348101,55.3623812 85.8720699,55.3097875 L86.0028101,55.2894286 C86.3542265,55.23429 86.7064757,55.1825446 87.0603903,55.1324958 L87.279401,55.1011092 C87.6383121,55.0510603 87.9963905,55.0018598 88.3553015,54.9569006 L88.3711236,54.955204 L88.3861129,54.9526592 C88.7042197,54.9119415 89.0223265,54.8737686 89.3404334,54.8372923 C89.6352234,54.7965746 89.931679,54.7558569 90.2281345,54.7176841 L90.2422911,54.7151392 L90.2572804,54.7142909 Z" id="Fill-43" fill="#D70110"></path>
                    <path d="M100.130365,139.054996 C103.966894,138.574525 107.4645,141.295577 107.944976,145.130447 C108.425452,148.966127 105.70599,152.464506 101.869462,152.944977 C98.0345517,153.425448 94.5353272,150.706014 94.0548512,146.869526 C93.5751841,143.034655 96.294646,139.535467 100.130365,139.054996" id="Fill-45" fill="#D70110"></path>
                    <path d="M95.3181831,111.012658 L95.3181831,111.012658 C96.1398141,110.900961 96.8959985,111.541069 96.9985053,112.436362 L100.988383,147.156022 C101.09089,148.051315 100.503448,148.875294 99.6826051,148.986991 L99.6818166,148.986991 C98.8601856,149.100406 98.1040011,148.459438 98.0007059,147.565004 L94.0116162,112.843626 C93.9091095,111.948333 94.496552,111.125214 95.3181831,111.012658" id="Fill-47" fill="#D70110"></path>
                    <path d="M88.152458,102.020185 L88.152458,102.020185 C89.0405094,101.91067 89.9174814,102.244271 90.1859423,103.082486 L103.923467,145.969617 C104.19278,146.808675 103.731709,147.870975 102.848771,147.979649 C101.964981,148.089164 101.083748,147.759775 100.814434,146.916505 L87.0769102,104.030217 C86.8075971,103.188632 87.2644066,102.129701 88.152458,102.020185" id="Fill-49" fill="#D70110"></path>
                    <path d="M251.719694,52.9078583 L252.399451,50.0890778 L241.187642,50.8865905 L240.507885,53.705371 L251.719694,52.9078583 Z M249.591685,61.7371617 L250.271442,58.9192269 L239.059634,59.7175854 L238.379877,62.5355202 L249.591685,61.7371617 Z M247.448608,70.6315855 L248.127528,67.812805 L236.91572,68.6103178 L236.237637,71.4290983 L247.448608,70.6315855 Z M228.199424,54.8276398 L232.344101,54.7785881 L234.71488,44.9462622 L243.000886,44.3567963 C243.440385,43.2785049 243.894951,42.1376303 244.272501,41.0644133 L233.366249,41.8407831 L233.984895,39.273181 C231.113506,42.7397821 227.283593,46.9514613 223.574228,50.4163709 C224.535264,51.1479176 225.436027,51.8845386 226.047975,52.5797194 L223.752539,55.1439386 L228.199424,54.8276398 Z M254.33408,76.6048969 L247.814438,77.0683507 C250.484913,79.1564302 253.965739,82.10968 255.676852,84.2036796 L247.508045,89.7718916 C246.054771,87.5975488 242.512834,84.1554736 239.841522,81.8221356 L246.960556,77.1300882 L233.494331,78.0874418 L238.881323,81.8289014 C238.577442,82.0961485 238.180637,82.2466864 237.679191,82.3447898 C234.318913,85.353857 227.71472,89.3938554 222.586404,91.5453638 C221.576814,90.0146129 219.651393,87.5662572 218.140356,86.1361469 C222.782295,84.2671085 228.260535,80.9231366 231.727129,78.2134539 L226.609696,78.5779586 L232.194253,55.4052656 C228.466471,64.4104786 224.84082,71.0087761 223.974381,72.6097216 L218.272624,70.6764086 C219.242869,68.6382265 220.439978,65.9057093 221.652993,63.1106089 L219.519962,63.2619926 L214.811053,82.8023236 C213.300853,89.0657165 211.130988,92.3597909 199.537444,93 C199.836302,90.5169698 199.584323,86.8414763 199,84.5428128 C201.299622,84.4413265 204.164313,84.2375083 205.018195,84.1766166 C205.871241,84.1157248 206.160054,83.9110609 206.325807,83.2218001 L210.990348,63.8692186 L202.45906,64.4764447 L204.375272,56.5224601 L215.403747,55.7384788 C213.008691,53.9996811 210.171626,52.3556039 207.640116,51.1817463 L213.399636,44.9242735 C214.877187,45.4959794 216.495377,46.242749 218.036551,47.0554847 C219.282214,45.8596384 220.574758,44.4751969 221.805353,43.0941382 L208.643846,44.0311945 L210.529922,36.2023763 L229.480247,34.853455 L230.86655,34.324035 L234.604378,36.7047333 L235.192887,34.2631433 L267,32 L265.173362,39.5776398 L253.534612,40.4055984 C252.989634,41.428918 252.412008,42.5782498 251.774945,43.7318101 L262.439264,42.9732004 L254.33408,76.6048969 Z" id="Fill-51" fill="#FFF000"></path>
                    <path d="M310.173739,60.8265576 L306.340868,61.0995774 L305.768361,63.4781459 L309.600396,63.2051261 L310.173739,60.8265576 Z M303.810137,71.6154874 L307.642172,71.3424676 L308.229723,68.9013497 L304.397688,69.1735242 L303.810137,71.6154874 Z M299.406432,61.5932106 L295.877784,61.8450988 L295.305277,64.2236673 L298.833925,63.9726244 L299.406432,61.5932106 Z M293.346217,72.3610089 L296.874865,72.1099659 L297.462416,69.6680027 L293.933768,69.9190457 L293.346217,72.3610089 Z M286.579772,32.9143013 L294.548899,32.3471302 L295.528429,28.2780368 L305.307849,28.1351875 C305.097233,28.7657532 304.504667,29.2382549 303.241809,29.5138105 L302.700226,31.7664349 L310.365131,31.2203954 L311.344661,27.151302 L321.246104,27 C321.019609,27.6931152 320.442923,28.1030675 319.180901,28.3777778 L318.639317,30.6304022 L326,30.1063395 L324.130368,37.8683845 L316.770522,38.3932924 L315.881255,42.086244 L307.607905,42.675392 L308.497171,38.9824404 L300.83143,39.5284799 L299.942164,43.2214315 L291.790837,43.8021268 L292.679268,40.1091752 L284.71014,40.6771915 L286.579772,32.9143013 Z M319.359757,53.7119836 L313.467533,78.1865576 C312.32252,82.9445399 310.671026,85.3374778 302.686018,85.7220723 C302.894962,83.8616496 302.690197,81.2303476 302.32162,79.5347512 C303.341267,79.5237628 304.619169,79.4324744 305.044579,79.402045 C305.7132,79.3547103 305.773376,79.1036673 306.270663,77.0386912 L302.438628,77.3108657 L300.374261,85.8868984 L293.439824,86.3805317 L295.503356,77.8053442 L291.975544,78.0563872 L289.881088,86.7566735 L282.520406,87.2815815 L290.099226,55.7964008 L319.359757,53.7119836 Z M323.35226,42.846135 L321.482629,50.60818 L289.606118,52.8794001 L288.099213,59.1377232 C286.064933,67.5886571 282.093324,80.113756 274.840457,88.136987 C274.061513,86.9003681 272.079887,84.703531 270.556267,83.5810225 L269.395374,88.4023995 L261,89 L267.946973,60.1427403 C266.536183,61.7808589 265.154644,63.2938787 263.804866,64.6826449 C263.693707,62.4139605 263.057681,57.3542195 262.565409,55.1734424 C268.287134,49.2912611 275.077817,38.9629993 280.014748,29.1376687 L288.721031,31.7165644 C288.342424,32.2972597 287.658759,32.6531152 286.700959,32.6598773 C284.519583,36.5066667 282.215347,40.3627539 279.744792,44.1681254 L281.647019,44.7090934 C281.329424,45.2847171 280.660803,45.8256851 279.58098,46.0868712 L271.068598,81.4534969 C276.208623,74.751411 278.593093,66.0900068 280.160173,59.5806408 L283.505786,45.683681 L323.35226,42.846135 Z" id="Fill-53" fill="#FFF000"></path>
                    <path d="M381.675311,23.1070724 C383.45464,25.8858553 384.736057,29.7523575 385,32.6399123 L376.87104,36.7503015 C376.774455,33.912034 375.627925,29.726864 374.075904,26.7449836 L381.675311,23.1070724 Z M335.321174,50.6221217 L334.226267,55.2160362 L341.922259,54.6628289 L343.017999,50.0697643 L335.321174,50.6221217 Z M328.288788,76.6101151 C328.894109,76.5667763 329.121417,76.3653783 329.256303,75.7994243 L331.222141,67.5557018 L330.859114,67.5811952 C329.441147,70.5282346 327.585216,73.8160362 325.560262,76.8064145 L328.288788,76.6101151 Z M367.952748,72.6450384 C367.502296,74.5341009 367.456501,74.7227522 367.88031,74.6921601 C368.485631,74.6488213 368.546413,74.6445724 368.788708,74.3794408 C369.363222,73.720011 370.608836,68.496409 371.34488,65.4134046 C372.468929,66.6931743 374.851914,67.9440515 376.686197,68.4938596 C374.521361,76.3186404 372.95685,81.6263706 366.896974,82.0623081 L363.563959,82.3019463 C361.987792,82.4149671 360.379985,81.9118969 359.58982,80.7307018 C358.738873,79.555455 358.628133,78.017352 359.769668,73.2339364 L361.7813,64.8015625 C358.386671,71.5403235 353.839682,78.114227 347.745668,83.4389529 C346.500055,81.9186952 343.554213,79.532511 341.582547,78.5620614 C343.669948,76.8038651 345.543364,74.9377467 347.266907,72.9577577 L341.304448,76.2328125 C341.072145,74.2077851 340.247009,71.4205044 339.36359,68.8881579 L337.816564,75.3685855 C336.346141,81.5354441 334.185468,84.3507675 325.154771,85 C325.422878,82.8780976 325.218884,79.9854441 324.835874,77.8482456 C323.672691,79.478125 322.418751,80.9915844 321.223928,82.252659 C320.312199,80.8335252 318.32055,78.1932566 317,76.9891173 C319.674405,74.0140351 322.270543,69.1260965 324.108989,64.6647478 L331.492745,66.4229441 L332.348688,62.83517 L324.288837,63.4147204 L329.032326,43.5281524 L353.577404,41.7640077 L348.833915,61.6497259 L340.954744,62.2165296 L340.053839,65.9921053 L346.214463,62.8904057 C347.462575,65.1508224 348.529173,68.1666941 349.141155,70.5962171 C354.822185,63.0127741 358.151037,54.3008224 360.255091,46.9740132 L354.679805,47.3751096 L356.556551,39.5086897 L326.193892,41.6917763 L328.205525,33.2585526 L339.47766,32.4487116 L341.264482,24.9604441 L351.917974,24.751398 C351.676511,25.5102522 351.100332,25.9223958 349.768958,26.2657072 L348.447575,31.8037281 L359.053607,31.040625 L357.23681,38.6555099 L362.449069,38.2807566 L366.051856,23.1784539 L376.280706,23 C376.055064,23.6959704 375.403115,24.1760965 374.146677,24.4514254 L370.994343,37.6672149 L383.781863,36.7477522 L381.710282,45.432511 L368.801198,46.3604715 C368.546413,47.1830592 368.335758,48.0642818 368.080141,48.8860197 L375.368977,48.7950932 C375.142502,49.4919134 374.567988,49.9049068 373.31155,50.1802357 L367.952748,72.6450384 Z" id="Fill-55" fill="#FFF000"></path>
                    <path d="M439.910196,41.9160366 C439.574873,42.5522598 438.744592,42.9780917 437.684568,43.1135837 C434.626969,50.6792534 429.990736,60.0080018 426.36216,66.2044451 L418.933546,64.4598808 C422.53087,57.8981982 426.904419,47.9130291 429.652035,40.1251862 L439.910196,41.9160366 Z M407.621274,31.6253794 L421.207318,30.6727278 L423.766579,20.2019756 L434.509564,20 C434.265462,20.7515176 433.68266,21.1596766 432.330391,21.4996689 L430.244973,30.0381877 L445,29.0022212 L442.914582,37.5398985 L405.535012,40.1630567 L407.621274,31.6253794 Z M416.66653,41.3420893 C416.821944,48.8656807 416.092175,58.5335798 414.952755,64.6778461 L405.519808,67.1772943 C406.874612,61.1407483 407.988693,51.1395894 408.123835,43.4114977 L416.66653,41.3420893 Z M397.362269,69.1583384 L436.954798,66.3794906 L434.867691,74.9180095 L395.275162,77.6968572 L397.362269,69.1583384 Z M390.479293,50.836626 C388.592366,52.868164 386.721487,54.8374262 384.850608,56.5609514 C384.599749,54.3728823 383.619966,49.7257602 383,47.5637796 C389.443763,41.7224767 397.168002,31.3788008 402.647185,21.5611031 L411.585172,24.302922 C411.064029,24.9517687 410.326658,25.2488411 409.481173,25.2463164 C407.076481,29.1520198 404.395592,33.1999476 401.576181,37.0728299 L403.991009,37.5769273 C403.714811,38.2081011 403.040788,38.7458612 401.903902,38.9478368 L391.777505,80.3915485 L383.108959,81 L390.479293,50.836626 Z" id="Fill-57" fill="#FFF000"></path>
                    <path d="M450.460513,51.6062877 L456.061537,20.85481 L468,20 L458.87681,51.0033339 L450.460513,51.6062877 Z M445.202275,62.5436861 C446.119105,58.7149712 449.843006,55.4133196 453.543126,55.14812 C457.244066,54.8829204 459.490216,57.757584 458.573387,61.5862989 C457.655737,65.4158478 453.931836,68.7174993 450.230896,68.9826989 C446.411047,69.2562381 444.314968,66.2498087 445.202275,62.5436861 L445.202275,62.5436861 Z" id="Fill-59" fill="#FFF000"></path>
                    <path d="M190.739241,122.008885 L190.063468,124.259275 L209.052281,123.136607 L209.728054,120.886217 L190.739241,122.008885 Z M188.545204,129.320967 L187.855673,131.613467 L206.844487,130.490799 L207.534018,128.198299 L188.545204,129.320967 Z M215.269392,138.449699 L213.477582,144.420137 L196.242541,145.439213 L193.489272,154.61174 L186.912019,155 L189.664479,145.828315 L173,146.813703 L174.79181,140.843264 L191.456288,139.857877 L192.39104,136.743378 L179.935777,137.479471 L186.116469,116.88487 L218,115 L211.819308,135.594601 L200.240527,136.279319 C200.005018,136.632206 199.589842,136.870552 198.76111,137.045732 L198.034351,139.468775 L215.269392,138.449699 Z" id="Fill-61" fill="#FEFEFE"></path>
                    <path d="M253.94993,119.741266 L237.429659,120.671238 L237.044426,121.893416 L253.564697,120.963444 L253.94993,119.741266 Z M235.475327,126.869953 L251.996427,125.939981 L252.421426,124.590579 L235.901155,125.52055 L235.475327,126.869953 Z M234.972454,151.127185 C235.392482,149.239335 235.553203,146.207283 235.386683,143.937759 L240.625019,142.566195 C240.953089,144.743789 240.966344,147.642049 240.637446,149.524154 L234.972454,151.127185 Z M226.383006,152.355929 C227.182468,150.240716 227.886657,146.886909 228.101227,144.390022 L233.682545,143.330364 C233.603014,145.819863 232.970072,149.085023 232.291565,151.236352 L226.383006,152.355929 Z M261.697665,134.753779 L232.471341,136.398671 L232.072852,137.66353 L255.596075,136.339573 L256.983742,136.137655 L260.280174,136.44874 C260.146792,136.870633 259.885,137.423855 259.590897,137.937679 C254.287941,151.820764 253.289649,152.332946 244.498887,152.662089 C244.919743,151.188745 244.941283,149.157254 244.54528,147.896499 C245.852586,147.946568 247.019883,147.880903 247.693419,147.842325 C248.277481,147.809493 248.661886,147.705251 249.186299,147.303878 C249.865635,146.685812 250.917776,144.886609 252.592917,140.691478 L247.700047,140.967268 C248.141614,142.640067 248.592295,144.852135 248.575726,146.301676 L243.150986,148.264219 C243.269456,146.766251 242.994408,144.421213 242.578522,142.663871 L247.519443,140.977118 L224.266297,142.286301 L232.26754,116.902925 L242.368922,116.334928 C243.087195,115.175132 243.773158,113.976757 244.213069,113 L252.128152,113.632019 C251.873816,114.018618 251.447988,114.250085 250.71646,114.331345 L249.372702,115.940121 L261.672811,115.247362 L257.126236,129.668896 L234.187076,130.960021 L233.773676,132.266741 L263,130.621849 L261.697665,134.753779 Z M227.165899,144.277572 C225.103039,147.747933 222.477658,151.457148 219.251644,154 L215,151.257693 C217.838295,149.108827 220.482732,145.895377 222.306167,142.769754 L227.165899,144.277572 Z" id="Fill-63" fill="#FEFEFE"></path>
                    <path d="M292.505853,134.270293 L294.263301,134.171073 C295.028132,134.128078 295.320764,133.902353 295.807928,132.915119 C296.332502,133.219392 297.30683,133.498034 298.262869,133.694819 C298.055035,133.372356 297.845537,133.049892 297.62357,132.770424 L301.864226,130.820759 L301.971468,130.480933 L295.979183,130.819106 C296.270152,131.303628 296.574421,131.745982 296.696628,132.197431 L292.505853,134.270293 Z M301.550811,119.698248 L290.469074,120.324984 L290.16231,121.30147 L301.244048,120.67556 L301.550811,119.698248 Z M290.213022,133.397987 C289.892126,134.418295 290.11825,134.405066 292.100991,134.293444 C291.88318,133.721278 291.50991,133.074697 291.092578,132.430597 L290.46658,132.591829 L290.213022,133.397987 Z M300.189911,124.031662 L300.524109,122.969185 L289.44154,123.595095 L289.108174,124.657572 L300.189911,124.031662 Z M288.388235,126.95037 L288.054868,128.013673 L299.136605,127.386936 L299.469972,126.32446 L288.388235,126.95037 Z M285.544227,141.923428 C286.381385,142.501381 287.424714,142.985077 288.629323,143.37534 C290.140696,142.789945 291.530693,142.168996 292.707868,141.518281 L285.544227,141.923428 Z M282.782522,131.981628 L285.244114,133.302902 L285.723796,131.774094 L290.598763,131.750116 L290.032622,131.154799 L282.780859,131.564906 L282.593808,132.160223 L282.782522,131.981628 Z M298.982808,137.74215 L302.423716,139.467744 C302.194267,139.77119 301.852587,139.874544 301.529197,140.058927 C299.851556,141.739871 297.776536,143.276121 295.316607,144.62468 C297.855513,144.857019 300.670424,144.906629 303.694832,144.861153 C302.150206,146.11628 299.969606,148.409079 298.794926,149.894065 C294.09454,149.784923 290.09996,149.25906 286.825319,148.275133 C282.920524,149.580697 278.47619,150.624156 273.64861,151.481578 C273.478186,150.198338 272.725825,148.362777 272.004223,147.277149 C275.387769,146.794281 278.480347,146.243612 281.311885,145.541634 C280.705839,145.074475 280.145517,144.605663 279.655859,144.049206 C278.427142,144.577551 277.122772,145.068687 275.728618,145.564785 C275.337058,144.418799 274.262138,142.768447 273.3751,142.067296 C278.466214,140.653417 282.474096,138.884002 285.285681,136.973199 C284.788541,136.583762 284.673816,135.964466 284.772745,135.082239 C283.277999,136.460564 281.558792,137.850465 279.85538,138.906326 L276.919926,136.277008 C277.77371,135.810676 278.700652,135.258354 279.561918,134.625829 L276.36376,134.806078 L278.324056,128.563515 L282.243815,128.341924 L285.538408,117.85111 L292.610601,117.450925 L293.214984,116.372739 L283.439279,116.925061 L284.412776,113.82445 L283.963022,113.850082 C282.215549,116.452114 280.379123,119.059108 278.422153,121.631375 L279.807163,122.012544 C279.551111,122.40198 279.039838,122.764132 278.232608,122.936112 L269.215915,151.648597 L263,152 L269.148577,132.418194 C268.048716,133.524492 266.977122,134.5448 265.930467,135.479118 C265.927973,133.936253 265.639499,130.489201 265.35435,129.003388 C269.78455,125.039567 275.162477,118.061125 279.1529,111.410934 L284.679636,112.975296 L284.799348,112.593301 L313,111 L311.639931,115.33176 L299.7917,116.001492 C299.548949,116.349588 299.262969,116.699337 298.962856,117.092081 L308.512437,116.552161 L305.217844,127.043802 L308.822526,126.840402 L306.862231,133.082965 L304.248504,133.230968 C304.698258,133.914756 305.012503,134.605985 305.217013,135.221147 L300.283021,137.542884 C300.041933,136.764011 299.578046,135.705669 298.952048,134.740759 C297.863827,136.511828 296.474661,137.132777 293.95155,137.275818 L291.923916,137.389921 C291.678671,137.612338 291.277135,137.76034 290.825718,137.785972 L289.964452,138.418497 L297.937816,137.967875 L298.982808,137.74215 Z" id="Fill-65" fill="#FEFEFE"></path>
                    <path d="M342.6504,119.472361 L336.947853,119.791969 L336.615529,120.841524 L342.318076,120.521917 L342.6504,119.472361 Z M340.958946,146.128947 C340.477449,143.887606 338.402289,140.828037 336.20116,138.724022 L342.284098,135.536937 C344.582189,137.470931 346.903484,140.310616 347.569789,142.665577 L340.958946,146.128947 Z M340.921652,124.931031 L341.253976,123.881475 L335.552258,124.201083 L335.219106,125.250639 L340.921652,124.931031 Z M334.075447,128.86196 L333.516878,130.625115 L337.796481,130.344743 C337.318299,130.040666 336.797852,129.740676 336.30641,129.479105 L337.803111,128.652703 L334.075447,128.86196 Z M324.687502,120.478594 L324.355178,121.528967 L330.148057,121.204455 L330.480381,120.154082 L324.687502,120.478594 Z M322.958754,125.937264 L328.751634,125.612752 L329.084786,124.563196 L323.291907,124.887708 L322.958754,125.937264 Z M324.327001,141.122305 C323.954069,142.297742 324.24247,142.363952 325.993593,142.265863 L330.483696,142.014918 C331.787301,141.941351 332.206643,141.588229 333.056928,139.601921 C334.002518,140.373557 336.431549,141.061817 338.045102,141.260448 C335.943423,145.667109 333.833456,146.899765 329.52236,147.141719 L323.504064,147.478492 C317.218086,147.830796 316.330507,146.312864 317.833009,141.568611 L319.122526,137.494636 L325.573423,137.463574 C325.167341,137.073669 324.748,136.72627 324.360979,136.418106 L325.587512,135.607234 C320.638288,136.049453 316.063653,136.428732 312.354222,136.718913 C312.144551,137.102279 311.706977,137.375294 311.287636,137.439052 L310.748127,131.901093 C314.822204,131.713906 320.659835,131.386942 327.036974,131.029733 L327.609632,129.224073 L315.662544,129.893532 L319.67778,117.211403 L331.62404,116.542761 L331.943104,115.535711 L315.102317,116.479003 L316.537692,111.944007 L333.379307,110.999898 L334.310809,108.061306 L342.004813,108 C341.812546,108.465107 341.316132,108.781445 340.36474,109.000511 L339.84595,110.637785 L357,109.67651 L355.564626,114.211505 L338.410576,115.173598 L338.091512,116.17983 L350.260702,115.49811 L346.244637,128.179422 L344.674178,128.267702 C346.511491,129.566568 348.207918,131.038725 349.187486,132.264024 L343.60925,135.669357 C343.242948,135.153571 342.800402,134.601001 342.268352,134.052519 C338.892073,134.407275 335.484302,134.721978 332.166034,135.031777 C333.053613,135.84837 333.793676,136.714008 334.171581,137.476653 L328.499697,141.176254 C328.130909,140.248493 327.259905,139.101665 326.227297,138.045571 C325.962101,138.18453 325.609059,138.32676 325.191375,138.392153 L324.327001,141.122305 Z M318.196825,139.444161 C315.839065,142.711352 312.950913,145.842035 309.046728,148 L305,144.762236 C308.262742,143.0939 311.203105,140.496168 313.17633,137.745581 L318.196825,139.444161 Z" id="Fill-67" fill="#FEFEFE"></path>
                    <path d="M249.459373,179.512925 C249.4444,180.664156 249.504292,181.729086 249.665668,182.747608 C251.095595,181.599634 252.563785,180.327091 253.695082,179.277631 L249.459373,179.512925 Z M254.85383,164.546916 L246.245159,165.025646 L245.497338,167.368003 L254.106841,166.889273 L254.85383,164.546916 Z M243.93515,172.261144 L243.121614,174.813556 L251.730285,174.334826 L252.544653,171.782414 L243.93515,172.261144 Z M253.875591,179.267047 L258.16121,182.767963 C257.840953,183.074089 257.184634,183.192143 256.623977,183.141665 C255.209856,184.245675 252.983862,185.807246 250.974147,187.111541 C251.969854,188.98738 253.522892,190.502544 255.803787,191.403012 C254.032808,192.651944 251.3335,195.144107 249.926033,196.78221 C244.308644,193.848769 243.082518,187.837777 243.779597,179.828821 L241.480402,179.956646 L238.396786,189.618359 C240.248453,189.228374 242.130898,188.876654 243.983397,188.485854 L242.797198,193.728272 C237.550809,195.047222 232.078159,196.378384 228.497937,197.194179 C228.274173,197.616731 227.819991,197.930185 227.399913,197.994504 L227.098789,191.725422 L231.74792,190.891716 L241.543621,160.192754 L263,159 L256.580721,179.11724 L253.875591,179.267047 Z M236.980169,160.200081 L240.591169,161.930185 C240.421475,162.186648 240.191888,162.485447 239.944833,162.705272 C237.922639,166.268878 235.043655,170.988602 232.817662,174.358437 C234.475511,177.347242 234.617755,179.680643 233.816697,182.190719 C231.50752,189.42703 226.637952,189.697334 223.212451,189.887849 C223.661642,188.342561 223.809709,186.075107 223.52938,184.734989 C224.178213,184.780582 224.764657,184.748015 225.21468,184.722776 C226.838424,184.633218 227.424869,183.490942 227.931457,181.901689 C228.492114,180.145532 228.34987,177.811317 226.924103,175.343578 C228.458841,172.752086 230.472716,168.943415 232.050709,165.937513 L229.481999,166.079992 L219.084881,198.661307 L213,199 L225.118187,161.024018 L235.936215,160.422349 L236.980169,160.200081 Z" id="Fill-69" fill="#FEFEFE"></path>
                    <path d="M291.990373,177.242308 L292.299288,176.265973 L286.674341,176.581506 L286.365425,177.557841 L291.990373,177.242308 Z M290.767267,181.10387 L291.076183,180.127535 L285.451235,180.443068 L285.142319,181.419403 L290.767267,181.10387 Z M296.470071,160.277867 L296.764755,159.343658 L280.706153,160.244001 L280.410632,161.17821 L296.470071,160.277867 Z M295.287149,164.010573 L295.582671,163.078016 L279.524069,163.977533 L279.228548,164.910916 L295.287149,164.010573 Z M274.335287,177.273696 L274.026371,178.249205 L279.969443,177.916326 L280.278359,176.939991 L274.335287,177.273696 Z M272.804102,182.110767 L278.746337,181.777888 L279.055253,180.801553 L273.113018,181.134432 L272.804102,182.110767 Z M304.373797,156 L301.015906,166.607525 L271.936794,168.238054 L275.294684,157.629703 L304.373797,156 Z M265.35496,169.607566 L307,167.273283 L305.642947,171.55941 L263.99707,173.893693 L265.35496,169.607566 Z M282.671829,189.226779 L282.349519,190.244414 L300.04144,189.253211 L298.64504,193.665717 L257,196 L258.397237,191.587494 L275.953537,190.602899 L276.275848,189.585264 L262.984094,190.330318 L264.192131,186.510883 L277.483884,185.765828 L277.766011,184.875398 L265.65383,185.554372 L269.146505,174.520629 L299.767685,172.804196 L296.27501,183.837938 L284.161992,184.516912 L283.879866,185.407343 L297.308916,184.654855 L296.100042,188.474291 L282.671829,189.226779 Z" id="Fill-71" fill="#FEFEFE"></path>
                    <path d="M342.333904,162.579278 C341.356395,161.461073 340.514375,160.33539 339.973254,159.234631 C338.770487,160.392713 337.257677,161.693686 335.576961,162.96309 L342.333904,162.579278 Z M330.549775,172.680513 L330.203159,173.790411 L340.562586,173.202231 L340.910033,172.092333 L330.549775,172.680513 Z M329.427635,187.457275 L328.8009,189.463565 L337.359085,188.977569 L337.98582,186.971279 L329.427635,187.457275 Z M339.189419,177.597793 L339.549335,176.444695 L329.189908,177.032874 L328.784275,178.188464 L339.189419,177.597793 Z M327.067817,182.268336 C326.888275,182.697009 326.678809,183.086637 326.455212,183.518633 L345.012908,182.464396 L341.465285,193.815927 L335.744866,194.140755 L336.051584,193.160456 L327.493399,193.646451 L327.186681,194.626751 L321.691522,194.939117 L323.865148,187.983978 C322.132897,190.554356 319.990025,193.024211 317.363387,195.059577 C316.839722,194.041063 315.119939,192.043081 314.161549,191.426656 C320.013299,186.860788 322.353168,180.64835 323.780364,176.082483 L326.007188,168.955376 C325.683014,169.142298 325.328085,169.287681 325.018042,169.431403 C324.865099,168.64384 324.658126,167.60705 324.347252,166.618443 L323.787845,168.412058 L320.498729,168.598149 L318.91194,173.676596 L322.337375,172.769404 L321.462938,177.974958 C320.023274,178.475908 318.552024,178.936981 317.111529,179.43793 L314.164874,188.86957 C313.284618,191.685853 312.32789,193.333254 310.399472,194.407429 C308.471054,195.480774 306.092949,195.867078 303,196 C303.325005,194.389983 303.387346,191.787206 303.097252,190.168051 C304.659935,190.121529 306.370575,190.024329 307.002298,189.988607 C307.588304,189.955376 307.821044,189.77427 308.007236,189.176952 L310.381185,181.580465 L306.890084,182.700332 C306.653188,183.176359 306.109574,183.499525 305.721396,183.605863 L306.311559,176.907429 C307.981469,176.518633 310.037894,176.02516 312.301291,175.435319 L314.328623,168.94873 L309.374584,169.229528 L311.148396,163.552931 L316.101604,163.272134 L318.596079,155.292666 L325.979757,155.165559 C325.788578,155.638263 325.366321,155.997152 324.379669,156.179089 L322.272541,162.921552 L325.561657,162.734631 L325.22834,163.802991 C330.25885,161.29492 335.576961,157.303109 338.564346,154.115476 L345.76682,154 C345.537405,154.306551 345.129278,154.623902 344.607276,154.736886 C346.350332,157.656183 350.232104,160.662711 354,161.917161 C352.286036,163.439948 350.213818,165.820911 348.721788,167.624496 C347.263006,166.91004 345.82168,165.860788 344.451007,164.722644 L343.837571,166.685735 L331.04601,167.411821 L331.55222,165.790173 C329.778408,166.939948 327.881576,168.053169 326.007188,168.955376 L348.077596,167.702587 L343.82344,181.317114 L327.067817,182.268336 Z" id="Fill-73" fill="#FEFEFE"></path>
                    <path d="M379.692177,183.444567 C379.224644,184.921652 379.352986,185.081115 380.571406,185.012891 L383.507447,184.848496 C384.680864,184.781917 385.134229,184.051183 386.812682,179.31251 C387.814419,180.209282 390.383768,181.061668 392.01055,181.384703 C389.186183,188.345168 386.867686,190.34174 382.307362,190.596552 L377.701202,190.854651 C372.010799,191.173577 371.302415,189.347153 373.040872,183.858019 L375.915242,174.77933 L353.425314,176.040237 L355.311281,170.086688 L372.336655,169.132378 L374.221789,163.178007 L367.267962,163.567622 C365.677849,165.647213 363.991063,167.607618 362.335946,169.194026 C361.139194,168.349038 358.72819,167.281295 357.32059,166.82099 C361.294205,163.238833 365.191148,157.379812 367.456309,153.021712 L374.548479,154.160144 C374.235123,154.59168 373.761756,154.825942 373.084208,154.863753 C372.604174,155.678328 372.039134,156.623597 371.429091,157.569687 L376.080254,157.309122 L377.738705,152.072334 L385.70177,152 C385.495922,152.509623 384.995886,152.827727 384.008316,153.007739 L382.764895,156.935124 L395.995833,156.192883 L394.138201,162.061768 L380.90643,162.803188 L379.020462,168.757558 L396,167.806536 L394.114866,173.760084 L382.554046,174.407799 L379.692177,183.444567 Z M371.315749,176.281897 C371.04573,176.711788 370.545695,177.029892 369.706469,177.159763 C366.487074,182.980974 363.010994,188.77506 351.249326,193 C351.048479,191.393865 350.089244,188.959182 349,187.776363 C359.047379,184.767121 361.454217,180.525742 363.589368,175.884884 L371.315749,176.281897 Z" id="Fill-75" fill="#FEFEFE"></path>
                    <g id="Group-79" transform="translate(404.000000, 76.000000)">
                        <mask id="mask-2" fill="white">
                            <use xlink:href="#path-1"></use>
                        </mask>
                        <g id="Clip-78"></g>
                        <path d="M124.946241,89.4542594 C116.95217,91.3210142 109.91692,87.1905174 108.158944,79.7276594 C106.460319,72.5178077 110.609077,65.5135239 118.099913,63.7641174 C127.217483,61.634369 132.517327,67.3461561 134.099756,74.0641432 C135.974764,82.0230271 131.816811,87.8496658 124.946241,89.4542594 L124.946241,89.4542594 Z M176.716686,91.7221626 L213.915069,16.0890465 L180.374748,0.0714077419 L153.780233,60.7213819 C147.141217,45.3620594 131.777522,38.3977239 112.776663,42.8344916 C102.415217,45.2546981 91.5731078,52.9897045 86.9344906,64.2393368 L56.1786781,55.4723303 L48.1135531,80.797111 L73.4850922,87.8063884 C71.6067406,92.8823303 63.5976234,96.2870981 57.7126234,96.9703819 C44.7514125,98.5225432 33.2255063,88.0011368 31.4248969,74.4977497 C29.8892797,61.3064594 39.3846938,48.7335368 51.6395375,46.8276658 C60.0482328,45.6300465 71.1787406,48.572911 76.5220531,54.5235561 L93.8201078,32.1341497 C83.62585,21.4321432 63.7414047,16.7565174 47.9973578,18.5184077 C17.941225,22.3018529 -2.94550937,51.075511 0.507748438,79.9540335 C4.29538125,110.018524 33.242225,131.981814 62.4189516,128.274105 C77.9322797,126.388208 91.0849203,116.606679 98.5515141,103.956356 C106.828967,110.416343 117.885077,113.40415 129.174413,110.767556 C129.642538,110.65853 130.102303,110.533692 130.561233,110.408853 C131.730709,116.476846 135.586053,121.958098 141.407522,124.738672 C151.208053,129.418459 163.059975,124.76364 168.274553,113.939292 C173.04692,104.032924 169.475795,94.6383948 159.213827,89.7380594 C157.812795,89.0697561 156.40842,88.5421045 155.014077,88.150111 C155.603413,86.4880916 156.068194,84.7711432 156.404241,83.0100852 L176.716686,91.7221626 Z" id="Fill-77" fill="#FEFEFE" mask="url(#mask-2)"></path>
                    </g>
                    <path d="M544.316209,24.7760035 C542.987612,25.6004275 541.442171,25.9494419 539.871708,26 C536.77999,17.3080758 530.905143,9.62731458 522.831814,5.11948486 C522.001963,3.84574571 521.606636,2.29719857 522.538239,1.18491931 C523.023639,0.585560619 523.790105,0.273241737 524.54406,0.124013655 C527.034449,-0.363627838 529.564036,0.660582387 531.760015,1.90904246 C537.061055,4.95639406 541.442171,9.51478192 544.201114,14.885362 L544.5072,15.3102135 C547.368728,16.7959707 547.330363,13.3865575 547.879149,16.5081154 C548.429603,19.6304888 547.075152,23.0904601 544.316209,24.7760035" id="Fill-80" fill="#F29700"></path>
                    <path d="M574.822266,23.1517057 C578.551048,19.5131895 581.80359,15.4199654 584.480234,11 C579.986823,13.3997998 575.494293,15.8004527 571,18.2002525 L575.612471,29.9475838 C579.783098,30.1668332 583.990766,29.6967693 588,28.5655448 C583.60801,26.7612162 579.215138,24.9568875 574.822266,23.1517057" id="Fill-82" fill="#F29700"></path>
                    <path d="M573.620854,46.2424176 C572.99625,47.8643012 572.230902,49.4340828 571.350627,50.9273922 C563.455634,64.3117131 546.174092,70.2832699 531.034526,67.2075736 C525.511361,66.0882218 520.295502,63.9251502 515.499377,60.9914738 C507.272926,55.9720383 500.283192,48.7004536 495.029024,40.5154039 C494.685075,40.8885212 494.314477,41.2616384 493.89391,41.5834941 C492.083392,43.0247015 489.812332,43.6944638 487.592906,44.3247294 C485.092825,45.0457533 481.815736,45.4835778 480.450768,43.2566392 C479.532184,41.7633299 480.10682,39.6918568 481.369352,38.5077978 C482.644377,37.3237388 484.429912,36.8598633 486.152153,36.7447347 C489.276838,36.5254023 492.452324,37.2850825 495.156443,38.8683097 L495.258045,38.5077978 C492.312413,35.2388201 489.404257,31.905135 487.13403,28.1218605 C484.647274,23.9906794 482.950849,19.2283923 483.141562,14.4022383 C483.154887,14.0417263 483.179871,13.6560038 483.371416,13.3467534 C483.90691,12.4719447 485.246893,12.7290931 486.164645,13.1795229 C490.679282,15.4064615 494.097948,19.7561347 495.246386,24.6856523 C496.075027,28.2252241 495.794372,32.0345496 496.572212,35.54723 C496.929485,35.6766446 497.286759,35.8052188 497.644032,35.933793 C499.09811,31.9958933 499.621112,27.3747857 501.852197,23.797398 C502.15867,23.3209171 502.515943,22.8326714 503.063929,22.7032568 C504.263168,22.3948468 505.066825,23.9646284 505.117627,25.2260001 C505.321664,29.5891189 502.502618,33.2950808 499.340457,36.486746 C505.627303,38.4044342 512.311398,38.944782 518.841424,38.1212349 C518.470826,37.696856 518.140202,37.2598718 517.859547,36.7573401 C515.932435,33.4244954 516.991764,28.2378294 520.651943,27.0663757 C518.917209,26.4100591 517.195801,25.7663478 515.461068,25.1100312 C514.12275,24.6083397 512.617038,23.9259721 512.208963,22.549472 C511.54605,20.3611897 514.020315,18.6233373 516.086504,17.697267 C513.688025,16.4358954 511.507741,14.7753555 509.632264,12.8198514 C507.566907,10.6567797 505.895467,7.16930989 507.757619,4.83984811 C508.497983,3.92638312 509.645589,3.43729699 510.794027,3.19275393 C514.555808,2.43391411 518.369224,4.02974669 521.672962,5.98525085 C522.424985,6.42307538 523.152024,6.88611053 523.879063,7.36259135 C533.010772,14.1064336 539.962198,23.3730191 542.321535,35.0841949 C542.321535,35.1228512 542.398153,35.1094055 542.385661,35.0581439 C541.73524,30.2059389 540.306979,25.4579378 538.176663,21.0948189 C539.681542,18.7527518 541.569512,16.6804384 543.775613,15.0198986 C549.452014,10.7088817 557.091336,9.15170539 563.991127,10.9013228 C566.478717,11.5324288 568.939656,12.6131242 570.700206,14.5182072 C572.076833,16.0106762 572.944617,17.9031538 573.634179,19.820842 C576.720556,28.26304 576.860467,37.9027428 573.620854,46.2424176" id="Fill-84" fill="#FFF000"></path>
                    <path d="M534.499625,24.572 C534.592625,24.572 534.592625,24.428 534.499625,24.428 C534.407625,24.428 534.407625,24.572 534.499625,24.572" id="Fill-86" fill="#D8EDF0"></path>
                    <path d="M574,45.8683489 C573.365955,47.4435734 572.589039,48.9681949 571.695458,50.4185441 C563.681129,63.4178193 546.138372,69.2175838 530.769967,66.2303705 C525.163319,65.1424045 519.86862,63.0423772 515,60.193098 C522.173162,61.4051231 529.073263,61.7552637 536.168649,59.3303973 C543.043387,56.992862 549.284081,52.8678958 555.473205,49.243247 C560.224316,46.4559974 570.115418,41.1810357 574,45.8683489" id="Fill-88" fill="#FEFEFE"></path>
                    <path d="M564,21.5 C564,22.8805732 562.881191,24 561.499602,24 C560.118809,24 559,22.8805732 559,21.5 C559,20.1194268 560.118809,19 561.499602,19 C562.881191,19 564,20.1194268 564,21.5" id="Fill-90" fill="#231916"></path>
                </g>
            </g>
        </g>
    </g>
</svg>